<svg width="60" height="60" viewBox="0 0 60 60" fill="none" xmlns="http://www.w3.org/2000/svg">
<circle cx="30" cy="30" r="30" fill="#206978"/>
<!-- <path d="M74.8828 20.1016L70.6758 27.2734H75V28H69.7031V27.3789L73.9395 20.207H69.8086V19.4805H74.8828V20.1016ZM78.9023 19.4805H79.9219L83.0625 28H82.125L79.4121 20.3652L76.6992 28H75.7617L78.9023 19.4805ZM77.209 25.1465H81.6914V25.9316H77.209V25.1465ZM89.543 19.4805H90.3867V28H89.543V19.4805ZM84.3516 19.4805H85.1953V28H84.3516V19.4805ZM84.9199 23.3828H90V24.1973H84.9199V23.3828ZM92.4961 19.4805H93.3398V28H92.4961V19.4805ZM93.0762 27.2148H97.9688V28H93.0762V27.2148ZM93.0762 23.377H97.3242V24.1621H93.0762V23.377ZM93.0762 19.4805H97.9688V20.2656H93.0762V19.4805ZM100.477 27.2148H102.404C103.193 27.2148 103.783 27.0312 104.174 26.6641C104.568 26.293 104.766 25.7363 104.766 24.9941V22.4863C104.766 21.7441 104.568 21.1895 104.174 20.8223C103.783 20.4512 103.193 20.2656 102.404 20.2656H100.477V19.4805H102.369C103.092 19.4805 103.693 19.5938 104.174 19.8203C104.654 20.043 105.014 20.3809 105.252 20.834C105.49 21.2871 105.609 21.8535 105.609 22.5332V24.9473C105.609 25.627 105.488 26.1934 105.246 26.6465C105.008 27.0957 104.648 27.4336 104.168 27.6602C103.688 27.8867 103.086 28 102.363 28H100.477V27.2148ZM99.668 19.4805H100.512V28H99.668V19.4805ZM109.512 19.4805H110.531L113.672 28H112.734L110.021 20.3652L107.309 28H106.371L109.512 19.4805ZM107.818 25.1465H112.301V25.9316H107.818V25.1465ZM114.961 19.4805H115.811L120.756 27.1562L120.41 26.9219V19.4805H121.254V27.9941H120.393L115.348 20.2598L115.805 20.5938V27.9941H114.961V19.4805ZM70.7461 41.4531H72.791C73.3184 41.4531 73.7266 41.3262 74.0156 41.0723C74.3047 40.8184 74.4492 40.459 74.4492 39.9941V37.4863C74.4492 37.0215 74.3047 36.6621 74.0156 36.4082C73.7266 36.1543 73.3184 36.0273 72.791 36.0273H70.7461V34.4805H72.7559C73.4668 34.4805 74.0723 34.5996 74.5723 34.8379C75.0762 35.0762 75.459 35.4238 75.7207 35.8809C75.9824 36.3379 76.1133 36.8887 76.1133 37.5332V39.9473C76.1133 40.5605 75.9863 41.0957 75.7324 41.5527C75.4824 42.0098 75.1055 42.3652 74.6016 42.6191C74.0977 42.873 73.4805 43 72.75 43H70.7461V41.4531ZM69.9375 34.4805H71.543V43H69.9375V34.4805ZM80.0953 34.4805H81.7008V43H80.0953V34.4805ZM80.6754 41.4531H85.8023V43H80.6754V41.4531ZM80.6754 37.9961H85.1578V39.543H80.6754V37.9961ZM80.6754 34.4805H85.8023V36.0273H80.6754V34.4805ZM92.3449 43.0879C91.9387 43.0879 91.5402 43.0469 91.1496 42.9648C90.7629 42.8828 90.3977 42.7637 90.0539 42.6074C89.7141 42.4473 89.4094 42.2559 89.1398 42.0332L89.884 40.709C90.2121 40.9785 90.591 41.1875 91.0207 41.3359C91.4504 41.4805 91.8918 41.5527 92.3449 41.5527C92.8684 41.5527 93.2746 41.4648 93.5637 41.2891C93.8527 41.1094 93.9973 40.8574 93.9973 40.5332V40.5273C93.9973 40.3008 93.9328 40.1211 93.8039 39.9883C93.675 39.8555 93.507 39.7578 93.3 39.6953C93.093 39.6328 92.8273 39.5762 92.5031 39.5254C92.4914 39.5215 92.4797 39.5195 92.468 39.5195C92.4602 39.5195 92.4504 39.5176 92.4387 39.5137L92.3098 39.4961C91.7395 39.4062 91.2668 39.2949 90.8918 39.1621C90.5168 39.0254 90.1984 38.7891 89.9367 38.4531C89.675 38.1133 89.5441 37.6328 89.5441 37.0117V37.0059C89.5441 36.4551 89.6672 35.9844 89.9133 35.5938C90.1594 35.2031 90.5168 34.9062 90.9855 34.7031C91.4543 34.4961 92.0207 34.3926 92.6848 34.3926C92.9895 34.3926 93.3 34.4277 93.6164 34.498C93.9367 34.5684 94.2492 34.6699 94.5539 34.8027C94.8586 34.9355 95.1477 35.0957 95.4211 35.2832L94.7414 36.6426C94.4133 36.416 94.0695 36.2402 93.7102 36.1152C93.3547 35.9902 93.0129 35.9277 92.6848 35.9277C92.1926 35.9277 91.8117 36.0098 91.5422 36.1738C91.2727 36.334 91.1379 36.5605 91.1379 36.8535V36.8594C91.1379 37.1055 91.2082 37.3008 91.3488 37.4453C91.4895 37.5859 91.6633 37.6895 91.8703 37.7559C92.0773 37.8223 92.3684 37.8926 92.7434 37.9668C92.759 37.9707 92.7746 37.9746 92.7902 37.9785C92.8059 37.9785 92.8215 37.9805 92.8371 37.9844C92.8605 37.9883 92.882 37.9941 92.9016 38.002C92.925 38.0059 92.9484 38.0098 92.9719 38.0137C93.5109 38.1191 93.9602 38.248 94.3195 38.4004C94.6828 38.5488 94.9855 38.791 95.2277 39.127C95.4699 39.459 95.591 39.9141 95.591 40.4922V40.5039C95.591 41.0469 95.4641 41.5117 95.2102 41.8984C94.9562 42.2852 94.5852 42.5801 94.0969 42.7832C93.6125 42.9863 93.0285 43.0879 92.3449 43.0879ZM100.891 43H99.2273V34.4805H100.891V43ZM111.108 38.2363V39.9004C111.108 40.5332 110.979 41.0918 110.721 41.5762C110.467 42.0566 110.106 42.4297 109.637 42.6953C109.168 42.957 108.625 43.0879 108.008 43.0879C107.387 43.0879 106.838 42.9648 106.362 42.7188C105.889 42.4688 105.522 42.1172 105.26 41.6641C105.002 41.2109 104.873 40.6855 104.873 40.0879V37.5742C104.873 36.9414 105 36.3848 105.254 35.9043C105.512 35.4238 105.875 35.0527 106.344 34.791C106.813 34.5254 107.356 34.3926 107.973 34.3926C108.481 34.3926 108.95 34.498 109.379 34.709C109.809 34.916 110.166 35.2109 110.452 35.5938C110.741 35.9766 110.936 36.4199 111.037 36.9238H109.303C109.245 36.7441 109.147 36.5898 109.01 36.4609C108.877 36.3281 108.719 36.2285 108.536 36.1621C108.356 36.0918 108.168 36.0566 107.973 36.0566C107.688 36.0566 107.436 36.1191 107.217 36.2441C107.002 36.3691 106.834 36.5469 106.713 36.7773C106.596 37.0078 106.537 37.2734 106.537 37.5742V40.0879C106.537 40.3535 106.598 40.5879 106.719 40.791C106.84 40.9941 107.012 41.1504 107.235 41.2598C107.457 41.3691 107.715 41.4238 108.008 41.4238C108.297 41.4238 108.549 41.3652 108.764 41.248C108.983 41.127 109.151 40.9531 109.268 40.7266C109.385 40.5 109.444 40.2324 109.444 39.9238V39.7832H108.155V38.2363H111.108ZM115.09 34.4805H117.053L120.223 41.0078L120.082 41.1602V34.4805H121.617V42.9941H119.643L116.484 36.5664L116.625 36.4141V42.9941H115.09V34.4805Z" fill="#fff"/> -->
<path d="M29.1961 44.129H19.7276C19.1881 44.1286 18.6581 43.9839 18.1907 43.7094C17.7233 43.4349 17.3348 43.0402 17.064 42.5648C16.7932 42.0893 16.6497 41.5498 16.6477 41.0001C16.6457 40.4504 16.7854 39.9098 17.0527 39.4323L27.4245 20.9642H18.0544V23.838H16V18.871H30.9677L18.8381 40.4694C18.7485 40.6285 18.7016 40.8088 18.702 40.9921C18.7024 41.1755 18.7501 41.3556 18.8403 41.5143C18.9305 41.6729 19.0601 41.8046 19.2161 41.8962C19.372 41.9877 19.5489 42.0359 19.7289 42.0358H29.1974L29.1961 44.129Z" fill="white"/>
<path d="M41.8196 43.1936H32.9573V41.1129H41.8145C42.0953 41.1126 42.3645 41.0031 42.5631 40.8084C42.7617 40.6137 42.8734 40.3498 42.8737 40.0745V20.9491H35.0836C34.8024 20.9494 34.5328 21.0591 34.334 21.254C34.1352 21.4489 34.0233 21.7132 34.023 21.9888V31.4091H31.9032V21.9888C31.9042 21.1622 32.2396 20.3698 32.8358 19.7853C33.432 19.2008 34.2404 18.872 35.0836 18.871H45V40.0757C44.999 40.9023 44.6636 41.6948 44.0673 42.2793C43.4711 42.8637 42.6628 43.1926 41.8196 43.1936Z" fill="white"/>
</svg>
