<?xml version="1.0" encoding="utf-8"?>
<!-- Generator: Adobe Illustrator 26.0.3, SVG Export Plug-In . SVG Version: 6.00 Build 0)  -->
<svg version="1.1" id="Layer_1" xmlns="http://www.w3.org/2000/svg" xmlns:xlink="http://www.w3.org/1999/xlink" x="0px" y="0px"
	 viewBox="140 440 810 470" style="enable-background:new 0 0 1080 1350;" xml:space="preserve">
<style type="text/css">
	.st0{fill:#006466;}
	.st1{fill:#FFFFFF;}
</style>
<circle class="st0" cx="364.2" cy="675" r="212.8"/>
<g>
	<path d="M647.3,607.1l-15.6,42.3h15.9v4.7h-21.2V650l15.8-42.3h-15.1V603h20.2V607.1z"/>
	<path d="M678.3,603h6.1l11.8,51.1h-5.6l-9.2-45.5l-9.2,45.5h-5.6L678.3,603z M673.1,637h17.4v4.7h-17.4V637z"/>
	<path d="M716.5,603h5.1v51.1h-5.1V603z M721,626.6h15.7v4.7H721V626.6z M735,603h5.1v51.1H735V603z"/>
	<path d="M762.8,603h5.1v51.1h-5.1V603z M766.3,603h18.5v4.7h-18.5V603z M766.3,626.4H783v4.7h-16.7V626.4z M766.3,649.4h18.5v4.7
		h-18.5V649.4z"/>
	<path d="M805.7,603h5.1v51.1h-5.1V603z M808.4,649.4h12.4c1.2,0,2.2-0.4,2.8-1.1c0.7-0.7,1-1.8,1-3.1v-33.3c0-1.3-0.3-2.4-1-3.1
		c-0.7-0.7-1.6-1.1-2.8-1.1h-12.4V603h12.2c1.9,0,3.6,0.4,4.9,1.1c1.4,0.7,2.4,1.8,3.1,3.1s1.1,3,1.1,5v32.8c0,1.9-0.4,3.6-1.1,5
		s-1.8,2.4-3.1,3.1c-1.4,0.7-3,1.1-4.9,1.1h-12.2V649.4z"/>
	<path d="M861.8,603h6.1l11.8,51.1h-5.6l-9.2-45.5l-9.2,45.5H850L861.8,603z M856.6,637h17.4v4.7h-17.4V637z"/>
	<path d="M900,603h4.7l16.2,42l-0.8,0.9V603h5v51.1h-4.8l-16.1-42l0.8-0.9v42.9h-5V603z"/>
	<path d="M626.9,689.4h7.7v51.1h-7.7V689.4z M632,733.2h7.9c1.2,0,2.1-0.4,2.8-1.1c0.6-0.7,1-1.7,1-3v-28.2c0-1.3-0.3-2.3-1-3
		c-0.6-0.7-1.6-1.1-2.8-1.1H632v-7.3h8.3c2.3,0,4.3,0.4,6,1.3c1.7,0.9,2.9,2.1,3.8,3.8s1.3,3.7,1.3,6v29c0,2.3-0.4,4.3-1.3,6
		c-0.9,1.7-2.2,2.9-3.8,3.8c-1.7,0.9-3.7,1.3-6,1.3H632V733.2z"/>
	<path d="M685.6,689.4h7.7v51.1h-7.7V689.4z M689.3,689.4H708v7.4h-18.7V689.4z M689.3,711.4h16.9v7.4h-16.9V711.4z M689.3,733.1
		H708v7.4h-18.7V733.1z"/>
	<path d="M745.8,739.6c-1.9-1-3.3-2.4-4.3-4.2s-1.5-4.1-1.5-6.7v-2.6l7.7-0.1v2.5c0,1.6,0.4,2.8,1.3,3.7c0.9,0.9,2.1,1.3,3.7,1.3
		c1.5,0,2.7-0.4,3.5-1.3c0.8-0.9,1.2-2.1,1.2-3.6v-4.5c0-1.1-0.3-2-0.8-2.8s-1.3-1.4-2.2-2s-2.1-1.2-3.6-1.9c-0.1,0-0.1-0.1-0.2-0.1
		s-0.1-0.1-0.2-0.1l-0.5-0.2c-2-1-3.7-2-5.1-3s-2.5-2.3-3.4-4s-1.4-3.8-1.4-6.3V701c0-2.6,0.5-4.8,1.5-6.6s2.4-3.2,4.3-4.1
		c1.9-0.9,4.1-1.4,6.8-1.4c2.6,0,4.8,0.5,6.6,1.4s3.2,2.3,4.2,4.2c0.9,1.8,1.4,4.1,1.5,6.7v2.8l-7.7,0.1v-2.6c0-1.6-0.4-2.9-1.2-3.7
		c-0.8-0.9-1.9-1.3-3.4-1.3c-1.6,0-2.8,0.4-3.6,1.2s-1.2,1.9-1.2,3.4v3.3c0,1.1,0.3,2.1,0.8,2.9c0.6,0.8,1.2,1.4,2.1,2
		c0.8,0.5,2,1.1,3.5,1.8c0.2,0.1,0.4,0.2,0.6,0.3s0.4,0.2,0.6,0.3c0.1,0,0.2,0.1,0.2,0.1s0.2,0.1,0.2,0.1c2,1,3.6,1.9,4.8,2.7
		c1.2,0.9,2.3,2.1,3.1,3.7s1.3,3.6,1.3,6.1v4.5c0,2.6-0.5,4.9-1.5,6.7c-1,1.9-2.4,3.3-4.3,4.2s-4.1,1.4-6.8,1.4
		C749.9,741,747.7,740.6,745.8,739.6z"/>
	<path d="M806.5,740.5h-7.7v-51.1h7.7V740.5z"/>
	<path d="M865.5,713v15.1c0,2.7-0.5,5-1.5,7s-2.4,3.4-4.3,4.4s-4.1,1.5-6.7,1.5c-2.6,0-4.9-0.5-6.8-1.5c-1.9-1-3.4-2.4-4.4-4.3
		s-1.5-4.1-1.5-6.7V702c0-2.8,0.5-5.1,1.5-7.1s2.4-3.5,4.3-4.5c1.9-1,4.1-1.5,6.7-1.5c2.6,0,4.8,0.5,6.6,1.5c1.8,1,3.2,2.5,4.2,4.4
		c1,1.9,1.5,4.2,1.5,6.9v3.2h-8.1v-3.2c0-1.1-0.2-2-0.5-2.8c-0.3-0.8-0.8-1.3-1.4-1.7c-0.6-0.4-1.4-0.6-2.3-0.6
		c-1,0-1.8,0.2-2.5,0.7c-0.7,0.4-1.2,1.1-1.6,1.9c-0.4,0.8-0.6,1.8-0.6,3v26.6c0,1,0.2,1.8,0.6,2.5c0.4,0.7,0.9,1.3,1.7,1.7
		c0.7,0.4,1.6,0.6,2.7,0.6c1,0,1.9-0.2,2.6-0.6c0.7-0.4,1.3-1,1.7-1.8s0.6-1.7,0.6-2.8v-7.9h-5V713H865.5z"/>
	<path d="M899.8,689.4h6.4l13,36.7l-1,1.1v-37.8h7.2v51.1h-6.4L906,705.4l1-1.2v36.2h-7.2V689.4z"/>
</g>
<g>
	<g>
		<path class="st1" d="M353.6,774.5h-76c-8.9,0-16.9-4.6-21.4-12.3c-4.5-7.7-4.5-17-0.1-24.7L339.4,592h-75.2v22.6h-16.5v-39.1
			h120.1l-97.4,170.1c-2.1,3.7-0.7,7,0,8.2c0.7,1.2,2.8,4.1,7.1,4.1h76V774.5z"/>
	</g>
	<g>
		<path class="st1" d="M455.9,768.5H387V752h68.9c4.5,0,8.2-3.7,8.2-8.2V592h-60.6c-4.5,0-8.2,3.7-8.2,8.2V675h-16.5v-74.8
			c0-13.6,11.1-24.7,24.7-24.7h77.1v168.3C480.7,757.4,469.6,768.5,455.9,768.5z"/>
	</g>
</g>
</svg>
