<?xml version="1.0" encoding="utf-8"?>
<!-- Generator: Adobe Illustrator 26.0.3, SVG Export Plug-In . SVG Version: 6.00 Build 0)  -->
<svg version="1.1" id="Layer_1" xmlns="http://www.w3.org/2000/svg" xmlns:xlink="http://www.w3.org/1999/xlink" x="0px" y="0px"
	 viewBox="0 0 60 60" style="enable-background:new 0 0 60 60;" xml:space="preserve">
<style type="text/css">
	.st0{fill:#206978;}
	.st1{fill:#fff;}
	.st2{fill:#FFFFFF;}
</style>
<circle class="st0" cx="30" cy="30" r="30"/>
<!-- <path class="st1" d="M75.9,17.8L71,26.2h5V27h-6.2v-0.7l4.9-8.4h-4.8v-0.8h5.9V17.8z M80.6,17.1h1.2l3.7,9.9h-1.1l-3.2-8.9L78,27
	h-1.1L80.6,17.1z M78.6,23.7h5.2v0.9h-5.2V23.7z M93,17.1h1V27h-1V17.1z M86.9,17.1h1V27h-1V17.1z M87.6,21.6h5.9v1h-5.9V21.6z
	 M96.4,17.1h1V27h-1V17.1z M97.1,26.1h5.7V27h-5.7V26.1z M97.1,21.6h5v0.9h-5V21.6z M97.1,17.1h5.7V18h-5.7V17.1z M105.7,26.1h2.2
	c0.9,0,1.6-0.2,2.1-0.6c0.5-0.4,0.7-1.1,0.7-1.9v-2.9c0-0.9-0.2-1.5-0.7-1.9c-0.5-0.4-1.1-0.6-2.1-0.6h-2.2v-0.9h2.2
	c0.8,0,1.5,0.1,2.1,0.4c0.6,0.3,1,0.7,1.3,1.2c0.3,0.5,0.4,1.2,0.4,2v2.8c0,0.8-0.1,1.5-0.4,2c-0.3,0.5-0.7,0.9-1.3,1.2
	c-0.6,0.3-1.3,0.4-2.1,0.4h-2.2V26.1z M104.8,17.1h1V27h-1V17.1z M116.3,17.1h1.2l3.7,9.9H120l-3.2-8.9l-3.2,8.9h-1.1L116.3,17.1z
	 M114.3,23.7h5.2v0.9h-5.2V23.7z M122.6,17.1h1l5.8,9l-0.4-0.3v-8.7h1V27h-1l-5.9-9l0.5,0.4V27h-1V17.1z M71,43.2h2.4
	c0.6,0,1.1-0.1,1.4-0.4c0.3-0.3,0.5-0.7,0.5-1.3v-2.9c0-0.5-0.2-1-0.5-1.3c-0.3-0.3-0.8-0.4-1.4-0.4H71v-1.8h2.3
	c0.8,0,1.5,0.1,2.1,0.4c0.6,0.3,1,0.7,1.3,1.2c0.3,0.5,0.5,1.2,0.5,1.9v2.8c0,0.7-0.1,1.3-0.4,1.9c-0.3,0.5-0.7,0.9-1.3,1.2
	c-0.6,0.3-1.3,0.4-2.2,0.4H71V43.2z M70.1,35.1H72V45h-1.9V35.1z M81.9,35.1h1.9V45h-1.9V35.1z M82.6,43.2h6V45h-6V43.2z M82.6,39.2
	h5.2V41h-5.2V39.2z M82.6,35.1h6v1.8h-6V35.1z M96.2,45.1c-0.5,0-0.9,0-1.4-0.1c-0.5-0.1-0.9-0.2-1.3-0.4c-0.4-0.2-0.8-0.4-1.1-0.7
	l0.9-1.5c0.4,0.3,0.8,0.6,1.3,0.7c0.5,0.2,1,0.3,1.5,0.3c0.6,0,1.1-0.1,1.4-0.3c0.3-0.2,0.5-0.5,0.5-0.9v0c0-0.3-0.1-0.5-0.2-0.6
	c-0.2-0.2-0.3-0.3-0.6-0.3s-0.6-0.1-0.9-0.2c0,0,0,0,0,0c0,0,0,0,0,0l-0.2,0c-0.7-0.1-1.2-0.2-1.7-0.4c-0.4-0.2-0.8-0.4-1.1-0.8
	c-0.3-0.4-0.5-1-0.5-1.7v0c0-0.6,0.1-1.2,0.4-1.6c0.3-0.5,0.7-0.8,1.3-1c0.5-0.2,1.2-0.4,2-0.4c0.4,0,0.7,0,1.1,0.1
	c0.4,0.1,0.7,0.2,1.1,0.4c0.4,0.2,0.7,0.3,1,0.6L99,37.6c-0.4-0.3-0.8-0.5-1.2-0.6c-0.4-0.1-0.8-0.2-1.2-0.2c-0.6,0-1,0.1-1.3,0.3
	c-0.3,0.2-0.5,0.5-0.5,0.8v0c0,0.3,0.1,0.5,0.2,0.7c0.2,0.2,0.4,0.3,0.6,0.4c0.2,0.1,0.6,0.2,1,0.2c0,0,0,0,0.1,0c0,0,0,0,0.1,0
	c0,0,0.1,0,0.1,0c0,0,0.1,0,0.1,0c0.6,0.1,1.2,0.3,1.6,0.5c0.4,0.2,0.8,0.5,1.1,0.8c0.3,0.4,0.4,0.9,0.4,1.6v0
	c0,0.6-0.1,1.2-0.4,1.6c-0.3,0.5-0.7,0.8-1.3,1C97.7,45,97,45.1,96.2,45.1z M106.2,45h-1.9v-9.9h1.9V45z M118.1,39.4v1.9
	c0,0.7-0.2,1.4-0.5,2c-0.3,0.6-0.7,1-1.3,1.3c-0.5,0.3-1.2,0.5-1.9,0.5c-0.7,0-1.4-0.1-1.9-0.4c-0.6-0.3-1-0.7-1.3-1.2
	c-0.3-0.5-0.5-1.1-0.5-1.8v-2.9c0-0.7,0.1-1.4,0.4-1.9c0.3-0.6,0.7-1,1.3-1.3c0.5-0.3,1.2-0.5,1.9-0.5c0.6,0,1.1,0.1,1.6,0.4
	c0.5,0.2,0.9,0.6,1.3,1c0.3,0.4,0.6,1,0.7,1.6h-2c-0.1-0.2-0.2-0.4-0.3-0.5c-0.2-0.2-0.3-0.3-0.6-0.3c-0.2-0.1-0.4-0.1-0.7-0.1
	c-0.3,0-0.6,0.1-0.9,0.2c-0.3,0.1-0.4,0.4-0.6,0.6c-0.1,0.3-0.2,0.6-0.2,0.9v2.9c0,0.3,0.1,0.6,0.2,0.8c0.1,0.2,0.3,0.4,0.6,0.5
	c0.3,0.1,0.6,0.2,0.9,0.2c0.3,0,0.6-0.1,0.9-0.2c0.3-0.1,0.5-0.3,0.6-0.6c0.1-0.3,0.2-0.6,0.2-0.9v-0.2h-1.5v-1.8H118.1z
	 M122.8,35.1h2.3l3.7,7.6l-0.2,0.2v-7.8h1.8V45h-2.3l-3.7-7.5l0.2-0.2V45h-1.8V35.1z"/> -->
<path class="st2" d="M28.2,42.3h-9.5c-0.5,0-1.1-0.1-1.5-0.4c-0.5-0.3-0.9-0.7-1.1-1.1c-0.3-0.5-0.4-1-0.4-1.6
	c0-0.5,0.1-1.1,0.4-1.6l10.4-18.5h-9.4V22H15v-5h15L17.8,38.6c-0.1,0.2-0.1,0.3-0.1,0.5s0,0.4,0.1,0.5s0.2,0.3,0.4,0.4
	c0.2,0.1,0.3,0.1,0.5,0.1h9.5L28.2,42.3z"/>
<path class="st2" d="M40.8,42.3H32v-2.2h8.9c0.3,0,0.5-0.1,0.7-0.3c0.2-0.2,0.3-0.5,0.3-0.8V19.2h-7.8c-0.3,0-0.6,0.1-0.7,0.3
	S33,20,33,20.2V30h-2.1v-9.8c0-0.9,0.3-1.7,0.9-2.3c0.6-0.6,1.4-0.9,2.2-0.9H44v22c0,0.9-0.3,1.7-0.9,2.3
	C42.5,41.9,41.7,42.3,40.8,42.3z"/>
</svg>
