<svg width="1472" height="1472" viewBox="0 0 1472 1472" fill="none" xmlns="http://www.w3.org/2000/svg">
<g opacity="0.05">
<path d="M334.65 936.014L301.647 971.331" stroke="#006466" stroke-width="5" stroke-miterlimit="10" stroke-linecap="round" stroke-linejoin="round"/>
<path d="M335.804 970.177L300.724 937.168" stroke="#006466" stroke-width="5" stroke-miterlimit="10" stroke-linecap="round" stroke-linejoin="round"/>
<path d="M841.242 895.619L808.238 930.705" stroke="#006466" stroke-width="5" stroke-miterlimit="10" stroke-linecap="round" stroke-linejoin="round"/>
<path d="M842.165 929.781L807.085 896.773" stroke="#006466" stroke-width="5" stroke-miterlimit="10" stroke-linecap="round" stroke-linejoin="round"/>
<path d="M1124.19 1324.04L1091.19 1359.12" stroke="#006466" stroke-width="5" stroke-miterlimit="10" stroke-linecap="round" stroke-linejoin="round"/>
<path d="M1125.12 1358.2L1090.04 1325.19" stroke="#006466" stroke-width="5" stroke-miterlimit="10" stroke-linecap="round" stroke-linejoin="round"/>
<path d="M286.645 1339.27L253.411 1374.59" stroke="#006466" stroke-width="5" stroke-miterlimit="10" stroke-linecap="round" stroke-linejoin="round"/>
<path d="M287.569 1373.44L252.488 1340.43" stroke="#006466" stroke-width="5" stroke-miterlimit="10" stroke-linecap="round" stroke-linejoin="round"/>
<path d="M333.958 87.2535L300.955 122.571" stroke="#006466" stroke-width="5" stroke-miterlimit="10" stroke-linecap="round" stroke-linejoin="round"/>
<path d="M334.881 121.417L299.801 88.4078" stroke="#006466" stroke-width="5" stroke-miterlimit="10" stroke-linecap="round" stroke-linejoin="round"/>
<path d="M513.515 502.747L480.512 537.833" stroke="#006466" stroke-width="5" stroke-miterlimit="10" stroke-linecap="round" stroke-linejoin="round"/>
<path d="M514.438 536.679L479.358 503.67" stroke="#006466" stroke-width="5" stroke-miterlimit="10" stroke-linecap="round" stroke-linejoin="round"/>
<path d="M905.402 331.01L872.399 366.326" stroke="#006466" stroke-width="5" stroke-miterlimit="10" stroke-linecap="round" stroke-linejoin="round"/>
<path d="M906.556 365.172L871.245 332.164" stroke="#006466" stroke-width="5" stroke-miterlimit="10" stroke-linecap="round" stroke-linejoin="round"/>
<path d="M1224.59 358.248L1191.59 393.564" stroke="#006466" stroke-width="5" stroke-miterlimit="10" stroke-linecap="round" stroke-linejoin="round"/>
<path d="M1225.74 392.41L1190.43 359.402" stroke="#006466" stroke-width="5" stroke-miterlimit="10" stroke-linecap="round" stroke-linejoin="round"/>
<path d="M387.502 674.484L345.728 698.721L387.502 722.958L429.506 746.964L429.506 698.721L429.506 650.247L387.502 674.484Z" stroke="#006466" stroke-width="5" stroke-miterlimit="10" stroke-linecap="round" stroke-linejoin="round"/>
<path d="M899.863 754.582L858.09 778.819L899.863 803.056L941.868 827.062L941.868 778.819L941.868 730.345L899.863 754.582Z" stroke="#006466" stroke-width="5" stroke-miterlimit="10" stroke-linecap="round" stroke-linejoin="round"/>
<path d="M1057.26 476.894L1015.26 501.131L1057.26 525.137L1099.27 549.374L1099.27 500.9L1099.27 452.657L1057.26 476.894Z" stroke="#006466" stroke-width="5" stroke-miterlimit="10" stroke-linecap="round" stroke-linejoin="round"/>
<path d="M735.538 316.929L688.687 304.464L701.381 351.323L713.844 397.95L748.001 363.787L782.159 329.625L735.538 316.929Z" stroke="#006466" stroke-width="5" stroke-miterlimit="10" stroke-linecap="round" stroke-linejoin="round"/>
<path d="M192.482 1113.29L145.631 1100.6L158.324 1147.45L170.787 1194.31L204.945 1159.92L239.102 1125.76L192.482 1113.29Z" stroke="#006466" stroke-width="5" stroke-miterlimit="10" stroke-linecap="round" stroke-linejoin="round"/>
<path d="M1203.13 1146.3L1156.27 1133.83L1168.97 1180.69L1181.43 1227.32L1215.59 1193.16L1249.98 1158.76L1203.13 1146.3Z" stroke="#006466" stroke-width="5" stroke-miterlimit="10" stroke-linecap="round" stroke-linejoin="round"/>
<path d="M244.641 267.993L220.408 225.982L196.405 267.993L172.172 310.004L220.408 310.004L268.874 309.773L244.641 267.993Z" stroke="#006466" stroke-width="5" stroke-miterlimit="10" stroke-linecap="round" stroke-linejoin="round"/>
<path d="M728.384 1147.45L704.151 1105.44L679.917 1147.45L655.684 1189.46L704.151 1189.46L752.617 1189.23L728.384 1147.45Z" stroke="#006466" stroke-width="5" stroke-miterlimit="10" stroke-linecap="round" stroke-linejoin="round"/>
<path d="M648.991 592.54C669.301 592.54 685.687 608.928 685.687 629.241C685.687 649.554 669.301 665.943 648.991 665.943C628.681 665.943 612.295 649.554 612.295 629.241C612.295 609.159 628.681 592.54 648.991 592.54Z" stroke="#006466" stroke-width="5" stroke-miterlimit="10" stroke-linecap="round" stroke-linejoin="round"/>
<path d="M239.102 778.126C259.412 778.126 275.798 794.515 275.798 814.828C275.798 835.141 259.412 851.53 239.102 851.53C218.792 851.53 202.406 835.141 202.406 814.828C202.406 794.746 219.023 778.126 239.102 778.126Z" stroke="#006466" stroke-width="5" stroke-miterlimit="10" stroke-linecap="round" stroke-linejoin="round"/>
<path d="M1323.14 754.813C1343.45 754.813 1359.83 771.202 1359.83 791.515C1359.83 811.828 1343.45 828.217 1323.14 828.217C1302.83 828.217 1286.44 811.828 1286.44 791.515C1286.44 771.202 1302.83 754.813 1323.14 754.813Z" stroke="#006466" stroke-width="5" stroke-miterlimit="10" stroke-linecap="round" stroke-linejoin="round"/>
<path d="M1268.21 656.479C1247.9 656.479 1231.51 640.09 1231.51 619.777C1231.51 599.464 1247.9 583.075 1268.21 583.075" stroke="#006466" stroke-width="5" stroke-miterlimit="10" stroke-linecap="round" stroke-linejoin="round"/>
<path d="M704.151 949.633C683.841 949.633 667.455 933.244 667.455 912.931C667.455 892.618 683.841 876.229 704.151 876.229" stroke="#006466" stroke-width="5" stroke-miterlimit="10" stroke-linecap="round" stroke-linejoin="round"/>
<path d="M405.966 1336.04C385.656 1336.04 369.269 1319.65 369.269 1299.57C369.269 1279.49 385.656 1263.1 405.966 1263.1" stroke="#006466" stroke-width="5" stroke-miterlimit="10" stroke-linecap="round" stroke-linejoin="round"/>
<path d="M466.203 410.184C466.203 430.497 449.816 446.886 429.737 446.886C409.658 446.886 393.272 430.497 393.272 410.184" stroke="#006466" stroke-width="5" stroke-miterlimit="10" stroke-linecap="round" stroke-linejoin="round"/>
<path d="M1322.91 1294.72C1322.91 1315.04 1306.52 1331.42 1286.44 1331.42C1266.36 1331.42 1249.98 1315.04 1249.98 1294.72" stroke="#006466" stroke-width="5" stroke-miterlimit="10" stroke-linecap="round" stroke-linejoin="round"/>
<path d="M154.862 900.466C154.862 920.779 138.476 937.168 118.397 937.168C98.318 937.168 81.9317 920.779 81.9317 900.466" stroke="#006466" stroke-width="5" stroke-miterlimit="10" stroke-linecap="round" stroke-linejoin="round"/>
<path d="M936.79 1276.49C957.1 1276.49 973.487 1292.88 973.487 1313.19C973.487 1333.5 957.1 1349.89 936.79 1349.89C916.481 1349.89 900.094 1333.5 900.094 1313.19C900.094 1292.88 916.481 1276.49 936.79 1276.49Z" stroke="#006466" stroke-width="5" stroke-miterlimit="10" stroke-linecap="round" stroke-linejoin="round"/>
<path d="M978.564 143.576C998.874 143.576 1015.26 159.965 1015.26 180.278C1015.26 200.591 998.874 216.98 978.564 216.98C958.254 216.98 941.868 200.591 941.868 180.278C941.868 160.196 958.254 143.576 978.564 143.576Z" stroke="#006466" stroke-width="5" stroke-miterlimit="10" stroke-linecap="round" stroke-linejoin="round"/>
<path d="M393.041 171.968L393.041 245.141L466.203 245.141L466.203 171.968L393.041 171.968Z" stroke="#006466" stroke-width="5" stroke-miterlimit="10" stroke-linecap="round" stroke-linejoin="round"/>
<path d="M429.507 998.107L429.507 1071.28L502.668 1071.28L502.668 998.107L429.507 998.107Z" stroke="#006466" stroke-width="5" stroke-miterlimit="10" stroke-linecap="round" stroke-linejoin="round"/>
<path d="M895.94 1001.8L895.94 1074.97L969.101 1074.97L969.101 1001.8L895.94 1001.8Z" stroke="#006466" stroke-width="5" stroke-miterlimit="10" stroke-linecap="round" stroke-linejoin="round"/>
<path d="M1249.98 171.968L1249.98 245.141L1323.14 245.141L1323.14 171.968L1249.98 171.968Z" stroke="#006466" stroke-width="5" stroke-miterlimit="10" stroke-linecap="round" stroke-linejoin="round"/>
<path d="M81.9316 475.278L81.9316 548.451L155.093 548.451L155.093 475.278L81.9316 475.278Z" stroke="#006466" stroke-width="5" stroke-miterlimit="10" stroke-linecap="round" stroke-linejoin="round"/>
<path d="M824.625 653.247C824.625 669.175 796.237 666.405 796.237 686.718" stroke="#006466" stroke-width="5" stroke-miterlimit="10" stroke-linecap="round" stroke-linejoin="round"/>
<path d="M824.625 586.307C824.625 602.234 796.237 599.464 796.237 619.777" stroke="#006466" stroke-width="5" stroke-miterlimit="10" stroke-linecap="round" stroke-linejoin="round"/>
<path d="M824.625 653.248C824.625 637.32 796.237 640.09 796.237 619.777" stroke="#006466" stroke-width="5" stroke-miterlimit="10" stroke-linecap="round" stroke-linejoin="round"/>
<path d="M824.625 586.307C824.625 570.38 796.237 573.15 796.237 552.837" stroke="#006466" stroke-width="5" stroke-miterlimit="10" stroke-linecap="round" stroke-linejoin="round"/>
<path d="M1351.53 462.121C1351.53 478.048 1323.14 475.278 1323.14 495.591" stroke="#006466" stroke-width="5" stroke-miterlimit="10" stroke-linecap="round" stroke-linejoin="round"/>
<path d="M1351.53 395.18C1351.53 411.107 1323.14 408.337 1323.14 428.65" stroke="#006466" stroke-width="5" stroke-miterlimit="10" stroke-linecap="round" stroke-linejoin="round"/>
<path d="M1351.53 462.121C1351.53 446.194 1323.14 448.964 1323.14 428.651" stroke="#006466" stroke-width="5" stroke-miterlimit="10" stroke-linecap="round" stroke-linejoin="round"/>
<path d="M1351.53 395.18C1351.53 379.253 1323.14 382.023 1323.14 361.71" stroke="#006466" stroke-width="5" stroke-miterlimit="10" stroke-linecap="round" stroke-linejoin="round"/>
<path d="M591.985 370.712C591.985 386.64 563.597 383.87 563.597 404.183" stroke="#006466" stroke-width="5" stroke-miterlimit="10" stroke-linecap="round" stroke-linejoin="round"/>
<path d="M591.985 303.541C591.985 319.468 563.597 316.698 563.597 337.011" stroke="#006466" stroke-width="5" stroke-miterlimit="10" stroke-linecap="round" stroke-linejoin="round"/>
<path d="M591.985 370.712C591.985 354.785 563.597 357.555 563.597 337.242" stroke="#006466" stroke-width="5" stroke-miterlimit="10" stroke-linecap="round" stroke-linejoin="round"/>
<path d="M591.985 303.541C591.985 287.614 563.597 290.384 563.597 270.071" stroke="#006466" stroke-width="5" stroke-miterlimit="10" stroke-linecap="round" stroke-linejoin="round"/>
<path d="M557.828 1303.96C557.828 1319.88 529.44 1317.11 529.44 1337.43" stroke="#006466" stroke-width="5" stroke-miterlimit="10" stroke-linecap="round" stroke-linejoin="round"/>
<path d="M557.828 1236.78C557.828 1252.71 529.44 1249.94 529.44 1270.25" stroke="#006466" stroke-width="5" stroke-miterlimit="10" stroke-linecap="round" stroke-linejoin="round"/>
<path d="M557.828 1303.96C557.828 1288.03 529.44 1290.8 529.44 1270.49" stroke="#006466" stroke-width="5" stroke-miterlimit="10" stroke-linecap="round" stroke-linejoin="round"/>
<path d="M557.828 1236.78C557.828 1220.86 529.44 1223.63 529.44 1203.31" stroke="#006466" stroke-width="5" stroke-miterlimit="10" stroke-linecap="round" stroke-linejoin="round"/>
<path d="M179.096 647.708C195.02 647.708 192.251 676.1 212.561 676.1" stroke="#006466" stroke-width="5" stroke-miterlimit="10" stroke-linecap="round" stroke-linejoin="round"/>
<path d="M112.166 647.708C128.09 647.708 125.321 676.1 145.631 676.1" stroke="#006466" stroke-width="5" stroke-miterlimit="10" stroke-linecap="round" stroke-linejoin="round"/>
<path d="M179.096 647.708C163.171 647.708 165.94 676.1 145.631 676.1" stroke="#006466" stroke-width="5" stroke-miterlimit="10" stroke-linecap="round" stroke-linejoin="round"/>
<path d="M112.166 647.708C96.2409 647.708 99.0104 676.1 78.7006 676.1" stroke="#006466" stroke-width="5" stroke-miterlimit="10" stroke-linecap="round" stroke-linejoin="round"/>
<path d="M530.132 853.608C546.057 853.608 543.288 882 563.597 882" stroke="#006466" stroke-width="5" stroke-miterlimit="10" stroke-linecap="round" stroke-linejoin="round"/>
<path d="M462.972 853.608C478.896 853.608 476.127 882 496.437 882" stroke="#006466" stroke-width="5" stroke-miterlimit="10" stroke-linecap="round" stroke-linejoin="round"/>
<path d="M530.132 853.608C514.208 853.608 516.977 882 496.667 882" stroke="#006466" stroke-width="5" stroke-miterlimit="10" stroke-linecap="round" stroke-linejoin="round"/>
<path d="M462.972 853.608C447.047 853.608 449.816 882 429.507 882" stroke="#006466" stroke-width="5" stroke-miterlimit="10" stroke-linecap="round" stroke-linejoin="round"/>
<path d="M1090.73 295.693C1106.65 295.693 1103.88 324.085 1124.19 324.085" stroke="#006466" stroke-width="5" stroke-miterlimit="10" stroke-linecap="round" stroke-linejoin="round"/>
<path d="M1023.8 295.693C1039.72 295.693 1036.95 324.085 1057.26 324.085" stroke="#006466" stroke-width="5" stroke-miterlimit="10" stroke-linecap="round" stroke-linejoin="round"/>
<path d="M1090.73 295.693C1074.8 295.693 1077.57 324.085 1057.26 324.085" stroke="#006466" stroke-width="5" stroke-miterlimit="10" stroke-linecap="round" stroke-linejoin="round"/>
<path d="M1023.8 295.693C1007.87 295.693 1010.64 324.085 990.334 324.085" stroke="#006466" stroke-width="5" stroke-miterlimit="10" stroke-linecap="round" stroke-linejoin="round"/>
<path d="M1143.81 987.72C1159.74 987.72 1156.97 1016.11 1177.28 1016.11" stroke="#006466" stroke-width="5" stroke-miterlimit="10" stroke-linecap="round" stroke-linejoin="round"/>
<path d="M1076.65 987.72C1092.58 987.72 1089.81 1016.11 1110.12 1016.11" stroke="#006466" stroke-width="5" stroke-miterlimit="10" stroke-linecap="round" stroke-linejoin="round"/>
<path d="M1143.81 987.72C1127.89 987.72 1130.66 1016.11 1110.35 1016.11" stroke="#006466" stroke-width="5" stroke-miterlimit="10" stroke-linecap="round" stroke-linejoin="round"/>
<path d="M1076.65 987.72C1060.73 987.72 1063.5 1016.11 1043.19 1016.11" stroke="#006466" stroke-width="5" stroke-miterlimit="10" stroke-linecap="round" stroke-linejoin="round"/>
<path d="M899.863 572.919L899.863 490.051" stroke="#006466" stroke-width="5" stroke-miterlimit="10" stroke-linecap="round" stroke-linejoin="round"/>
<path d="M660.761 1386.82L660.761 1304.19" stroke="#006466" stroke-width="5" stroke-miterlimit="10" stroke-linecap="round" stroke-linejoin="round"/>
<path d="M276.029 566.687L276.029 484.05" stroke="#006466" stroke-width="5" stroke-miterlimit="10" stroke-linecap="round" stroke-linejoin="round"/>
<path d="M89.0862 240.294L89.0862 157.657" stroke="#006466" stroke-width="5" stroke-miterlimit="10" stroke-linecap="round" stroke-linejoin="round"/>
<path d="M1322.91 1056.74L1322.91 974.101" stroke="#006466" stroke-width="5" stroke-miterlimit="10" stroke-linecap="round" stroke-linejoin="round"/>
<path d="M1162.97 844.144L1104.58 785.744" stroke="#006466" stroke-width="5" stroke-miterlimit="10" stroke-linecap="round" stroke-linejoin="round"/>
<path d="M147.708 1328.89L89.0863 1270.26" stroke="#006466" stroke-width="5" stroke-miterlimit="10" stroke-linecap="round" stroke-linejoin="round"/>
<path d="M747.771 198.975L689.149 140.344" stroke="#006466" stroke-width="5" stroke-miterlimit="10" stroke-linecap="round" stroke-linejoin="round"/>
<g opacity="0.3">
<path d="M418.428 621.855L376.424 646.092L418.428 670.098L460.433 694.335L460.433 645.861L460.202 597.618L418.428 621.855Z" stroke="black" stroke-miterlimit="10"/>
<path d="M930.79 701.953L888.785 726.19L930.79 750.427L972.794 774.433L972.794 726.19L972.563 677.716L930.79 701.953Z" stroke="black" stroke-miterlimit="10"/>
<path d="M1088.19 424.034L1046.19 448.271L1088.19 472.508L1129.96 496.745L1129.96 448.271L1129.96 399.797L1088.19 424.034Z" stroke="black" stroke-miterlimit="10"/>
<path d="M766.234 264.3L719.614 251.835L732.077 298.694L744.77 345.321L778.928 311.158L813.085 276.765L766.234 264.3Z" stroke="black" stroke-miterlimit="10"/>
<path d="M223.177 1060.43L176.557 1047.97L189.02 1094.82L201.713 1141.45L235.871 1107.29L270.028 1073.13L223.177 1060.43Z" stroke="black" stroke-miterlimit="10"/>
<path d="M1234.05 1093.67L1187.2 1081.21L1199.66 1127.83L1212.36 1174.69L1246.52 1140.53L1280.67 1106.14L1234.05 1093.67Z" stroke="black" stroke-miterlimit="10"/>
<path d="M275.567 215.364L251.334 173.353L227.101 215.364L202.867 257.375L251.334 257.144L299.801 257.144L275.567 215.364Z" stroke="black" stroke-miterlimit="10"/>
<path d="M759.079 1094.82L734.846 1052.81L710.844 1094.82L686.61 1136.84L735.077 1136.6L783.313 1136.6L759.079 1094.82Z" stroke="black" stroke-miterlimit="10"/>
<path d="M679.917 539.91C700.227 539.91 716.613 556.299 716.613 576.612C716.613 596.925 700.227 613.314 679.917 613.314C659.608 613.314 643.221 596.925 643.221 576.612C643.221 556.299 659.608 539.91 679.917 539.91Z" stroke="black" stroke-miterlimit="10"/>
<path d="M270.028 725.497C290.338 725.497 306.724 741.886 306.724 762.199C306.724 782.512 290.338 798.901 270.028 798.901C249.718 798.901 233.332 782.512 233.332 762.199C233.332 741.886 249.718 725.497 270.028 725.497Z" stroke="black" stroke-miterlimit="10"/>
<path d="M1354.06 702.184C1374.37 702.184 1390.76 718.573 1390.76 738.886C1390.76 759.199 1374.37 775.587 1354.06 775.587C1333.75 775.587 1317.37 759.199 1317.37 738.886C1317.14 718.573 1333.75 702.184 1354.06 702.184Z" stroke="black" stroke-miterlimit="10"/>
<path d="M1299.14 603.85C1278.83 603.85 1262.44 587.461 1262.44 567.148C1262.44 546.835 1278.83 530.446 1299.14 530.446" stroke="black" stroke-miterlimit="10"/>
<path d="M735.077 897.004C714.767 897.004 698.381 880.615 698.381 860.302C698.381 839.989 714.767 823.6 735.077 823.6" stroke="black" stroke-miterlimit="10"/>
<path d="M436.892 1283.41C416.582 1283.41 400.196 1267.02 400.196 1246.94C400.196 1226.86 416.582 1210.47 436.892 1210.47" stroke="black" stroke-miterlimit="10"/>
<path d="M496.898 357.555C496.898 377.868 480.512 394.257 460.433 394.257C440.354 394.257 423.967 377.868 423.967 357.555" stroke="black" stroke-miterlimit="10"/>
<path d="M1353.83 1242.09C1353.83 1262.41 1337.45 1278.8 1317.37 1278.8C1297.29 1278.8 1280.9 1262.41 1280.9 1242.09" stroke="black" stroke-miterlimit="10"/>
<path d="M185.789 847.837C185.789 868.15 169.402 884.539 149.323 884.539C129.244 884.539 112.858 868.15 112.858 847.837" stroke="black" stroke-miterlimit="10"/>
<path d="M967.486 1223.63C987.796 1223.63 1004.18 1240.02 1004.18 1260.33C1004.18 1280.64 987.796 1297.03 967.486 1297.03C947.176 1297.03 930.79 1280.64 930.79 1260.33C930.79 1240.25 947.176 1223.63 967.486 1223.63Z" stroke="black" stroke-miterlimit="10"/>
<path d="M1009.49 90.9471C1029.8 90.9471 1046.19 107.336 1046.19 127.649C1046.19 147.962 1029.8 164.351 1009.49 164.351C989.18 164.351 972.794 147.962 972.794 127.649C972.794 107.336 989.18 90.9471 1009.49 90.9471Z" stroke="black" stroke-miterlimit="10"/>
<path d="M423.737 119.339L423.737 192.512L496.898 192.512L496.898 119.339L423.737 119.339Z" stroke="black" stroke-miterlimit="10"/>
<path d="M460.433 945.478L460.433 1018.65L533.594 1018.65L533.594 945.478L460.433 945.478Z" stroke="black" stroke-miterlimit="10"/>
<path d="M926.866 949.171L926.866 1022.34L1000.03 1022.34L1000.03 949.171L926.866 949.171Z" stroke="black" stroke-miterlimit="10"/>
<path d="M1280.67 119.339L1280.67 192.512L1353.83 192.512L1353.83 119.339L1280.67 119.339Z" stroke="black" stroke-miterlimit="10"/>
<path d="M112.627 422.418L112.627 495.591L185.789 495.591L185.789 422.418L112.627 422.418Z" stroke="black" stroke-miterlimit="10"/>
<path d="M855.551 600.619C855.551 616.546 827.163 613.776 827.163 634.089" stroke="black" stroke-miterlimit="10"/>
<path d="M855.551 533.678C855.551 549.605 827.163 546.835 827.163 567.148" stroke="black" stroke-miterlimit="10"/>
<path d="M855.551 600.619C855.551 584.691 827.163 587.461 827.163 567.148" stroke="black" stroke-miterlimit="10"/>
<path d="M855.551 533.678C855.551 517.751 827.163 520.521 827.163 500.208" stroke="black" stroke-miterlimit="10"/>
<path d="M1382.22 409.492C1382.22 425.419 1353.83 422.649 1353.83 442.962" stroke="black" stroke-miterlimit="10"/>
<path d="M1382.22 342.32C1382.22 358.248 1353.83 355.478 1353.83 375.791" stroke="black" stroke-miterlimit="10"/>
<path d="M1382.22 409.492C1382.22 393.565 1353.83 396.335 1353.83 376.022" stroke="black" stroke-miterlimit="10"/>
<path d="M1382.22 342.321C1382.22 326.393 1353.83 329.163 1353.83 308.85" stroke="black" stroke-miterlimit="10"/>
<path d="M622.911 318.083C622.911 334.01 594.524 331.24 594.524 351.553" stroke="black" stroke-miterlimit="10"/>
<path d="M622.911 250.912C622.911 266.839 594.524 264.069 594.524 284.382" stroke="black" stroke-miterlimit="10"/>
<path d="M622.911 318.083C622.911 302.156 594.524 304.926 594.524 284.613" stroke="black" stroke-miterlimit="10"/>
<path d="M622.911 250.912C622.911 234.985 594.524 237.755 594.524 217.442" stroke="black" stroke-miterlimit="10"/>
<path d="M588.754 1251.1C588.754 1267.02 560.366 1264.25 560.366 1284.57" stroke="black" stroke-miterlimit="10"/>
<path d="M588.754 1184.16C588.754 1200.08 560.366 1197.31 560.366 1217.63" stroke="black" stroke-miterlimit="10"/>
<path d="M588.754 1251.1C588.754 1235.17 560.366 1237.94 560.366 1217.63" stroke="black" stroke-miterlimit="10"/>
<path d="M588.754 1184.16C588.754 1168.23 560.366 1171 560.366 1150.69" stroke="black" stroke-miterlimit="10"/>
<path d="M210.022 595.079C225.947 595.079 223.177 623.471 243.487 623.471" stroke="black" stroke-miterlimit="10"/>
<path d="M142.861 595.079C158.786 595.079 156.016 623.471 176.326 623.471" stroke="black" stroke-miterlimit="10"/>
<path d="M210.022 595.079C194.097 595.079 196.867 623.471 176.557 623.471" stroke="black" stroke-miterlimit="10"/>
<path d="M142.861 595.079C126.936 595.079 129.706 623.471 109.396 623.471" stroke="black" stroke-miterlimit="10"/>
<path d="M561.059 800.979C576.984 800.979 574.214 829.371 594.524 829.371" stroke="black" stroke-miterlimit="10"/>
<path d="M493.898 800.979C509.823 800.979 507.053 829.371 527.363 829.371" stroke="black" stroke-miterlimit="10"/>
<path d="M561.059 800.979C545.134 800.979 547.904 829.371 527.594 829.371" stroke="black" stroke-miterlimit="10"/>
<path d="M493.898 800.979C477.973 800.979 480.743 829.371 460.433 829.371" stroke="black" stroke-miterlimit="10"/>
<path d="M1121.66 243.064C1137.58 243.064 1134.81 271.456 1155.12 271.456" stroke="black" stroke-miterlimit="10"/>
<path d="M1054.49 243.064C1070.42 243.064 1067.65 271.456 1087.96 271.456" stroke="black" stroke-miterlimit="10"/>
<path d="M1121.66 243.064C1105.73 243.064 1108.5 271.456 1088.19 271.456" stroke="black" stroke-miterlimit="10"/>
<path d="M1054.49 243.064C1038.57 243.064 1041.34 271.456 1021.03 271.456" stroke="black" stroke-miterlimit="10"/>
<path d="M1174.51 935.091C1190.43 935.091 1187.66 963.483 1207.97 963.483" stroke="black" stroke-miterlimit="10"/>
<path d="M1107.35 935.091C1123.27 935.091 1120.5 963.483 1140.81 963.483" stroke="black" stroke-miterlimit="10"/>
<path d="M1174.51 935.091C1158.58 935.091 1161.35 963.483 1141.04 963.483" stroke="black" stroke-miterlimit="10"/>
<path d="M1107.35 935.091C1091.42 935.091 1094.19 963.483 1073.88 963.483" stroke="black" stroke-miterlimit="10"/>
<path d="M930.79 520.29L930.79 437.422" stroke="black" stroke-miterlimit="10"/>
<path d="M691.457 1334.19L691.457 1251.33" stroke="black" stroke-miterlimit="10"/>
<path d="M306.724 514.058L306.724 431.19" stroke="black" stroke-miterlimit="10"/>
<path d="M120.013 187.665L120.013 105.028" stroke="black" stroke-miterlimit="10"/>
<path d="M1353.83 1004.11L1353.83 921.472" stroke="black" stroke-miterlimit="10"/>
<path d="M1193.89 791.515L1135.27 733.115" stroke="black" stroke-miterlimit="10"/>
<path d="M178.403 1276.26L120.013 1217.63" stroke="black" stroke-miterlimit="10"/>
<path d="M778.466 146.346L720.075 87.7154" stroke="black" stroke-miterlimit="10"/>
</g>
<path d="M1096.04 633.165C1100.19 639.86 1098.35 648.862 1091.42 653.017C1084.73 657.172 1075.73 655.325 1071.57 648.4C1067.42 641.706 1069.27 632.704 1076.19 628.549C1082.65 624.163 1091.65 626.241 1096.04 633.165Z" stroke="#006466" stroke-width="5" stroke-miterlimit="10" stroke-linecap="round" stroke-linejoin="round"/>
<path d="M697.919 746.965C702.073 753.659 700.227 762.661 693.303 766.816C686.61 770.971 677.609 769.124 673.455 762.199C669.301 755.505 671.147 746.503 678.071 742.348C684.764 738.193 693.765 740.27 697.919 746.965Z" stroke="#006466" stroke-width="5" stroke-miterlimit="10" stroke-linecap="round" stroke-linejoin="round"/>
<path d="M820.47 1268.41C824.625 1275.1 822.778 1284.1 815.855 1288.26C809.162 1292.41 800.161 1290.57 796.006 1283.64C791.852 1276.95 793.698 1267.95 800.622 1263.79C807.315 1259.64 816.085 1261.71 820.47 1268.41Z" stroke="#006466" stroke-width="5" stroke-miterlimit="10" stroke-linecap="round" stroke-linejoin="round"/>
<path d="M365.115 1120.22C369.269 1126.91 367.423 1135.91 360.499 1140.07C353.806 1144.22 344.805 1142.38 340.651 1135.45C336.497 1128.76 338.343 1119.75 345.267 1115.6C351.96 1111.44 360.73 1113.52 365.115 1120.22Z" stroke="#006466" stroke-width="5" stroke-miterlimit="10" stroke-linecap="round" stroke-linejoin="round"/>
<path d="M357.961 324.316C362.115 331.01 360.268 340.012 353.345 344.167C346.652 348.322 337.651 346.475 333.496 339.55C329.342 332.856 331.189 323.854 338.112 319.699C344.805 315.544 353.575 317.622 357.961 324.316Z" stroke="#006466" stroke-width="5" stroke-miterlimit="10" stroke-linecap="round" stroke-linejoin="round"/>
<path d="M873.322 120.031C877.476 126.725 875.63 135.728 868.706 139.883C862.013 144.038 853.012 142.191 848.858 135.266C844.704 128.572 846.55 119.57 853.474 115.415C860.167 111.26 868.937 113.337 873.322 120.031Z" stroke="#006466" stroke-width="5" stroke-miterlimit="10" stroke-linecap="round" stroke-linejoin="round"/>
</g>
</svg>
