<?xml version="1.0" encoding="UTF-8"?>
<svg id="Layer_1" data-name="Layer 1" xmlns="http://www.w3.org/2000/svg" xmlns:xlink="http://www.w3.org/1999/xlink" viewBox="0 0 1920 1080.33">
  <defs>
    <style>
      .cls-1 {
        fill: #006466;
        opacity: .03;
      }

      .cls-2 {
        fill: url(#New_Pattern_8);
      }

      .cls-3 {
        fill: none;
      }
    </style>
    <pattern id="New_Pattern_8" data-name="New Pattern 8" x="0" y="0" width="1122" height="1122" patternTransform="translate(-4899.75 -3246.23) scale(.32)" patternUnits="userSpaceOnUse" viewBox="0 0 1122 1122">
      <g>
        <rect class="cls-3" x="0" width="1122" height="1122"/>
        <path class="cls-1" d="m1006.93,1077.6c-4.74-7.77-2.99-18.02,4.37-23.73,38.57-29.92,81.99-39.22,119.11-25.51,37.12,13.71,64.07,48.99,73.93,96.81,7.39,35.81,25.5,60.72,51,70.14,25.5,9.42,55.46,2.26,84.35-20.15,7.91-6.13,19.29-4.7,25.42,3.21,6.13,7.9,4.7,19.28-3.21,25.42-38.57,29.92-81.98,39.22-119.11,25.51-37.12-13.71-64.07-49-73.93-96.81-7.39-35.81-25.5-60.72-51-70.14-25.5-9.42-55.46-2.26-84.35,20.15-7.91,6.13-19.29,4.7-25.42-3.21-.42-.55-.81-1.11-1.16-1.69Z"/>
        <g>
          <path class="cls-1" d="m-115.07,1077.6c-4.74-7.77-2.99-18.02,4.37-23.73,38.57-29.92,81.98-39.22,119.11-25.51,37.12,13.71,64.07,48.99,73.93,96.81,7.39,35.81,25.5,60.72,51,70.14,25.5,9.42,55.46,2.26,84.35-20.15,7.91-6.13,19.29-4.7,25.42,3.21,6.13,7.9,4.7,19.28-3.21,25.42-38.57,29.92-81.98,39.22-119.11,25.51-37.12-13.71-64.07-49-73.93-96.81-7.39-35.81-25.5-60.72-51-70.14-25.5-9.42-55.46-2.26-84.35,20.15-7.91,6.13-19.29,4.7-25.42-3.21-.42-.55-.81-1.11-1.16-1.69Z"/>
          <path class="cls-1" d="m1006.93,1077.6c-4.74-7.77-2.99-18.02,4.37-23.73,38.57-29.92,81.99-39.22,119.11-25.51,37.12,13.71,64.07,48.99,73.93,96.81,7.39,35.81,25.5,60.72,51,70.14,25.5,9.42,55.46,2.26,84.35-20.15,7.91-6.13,19.29-4.7,25.42,3.21,6.13,7.9,4.7,19.28-3.21,25.42-38.57,29.92-81.98,39.22-119.11,25.51-37.12-13.71-64.07-49-73.93-96.81-7.39-35.81-25.5-60.72-51-70.14-25.5-9.42-55.46-2.26-84.35,20.15-7.91,6.13-19.29,4.7-25.42-3.21-.42-.55-.81-1.11-1.16-1.69Z"/>
          <path class="cls-1" d="m388.22,1150.58c-8.52-3.19-13.46-12.35-11.19-21.38,11.92-47.34,40.36-81.43,78.04-93.52,37.68-12.09,80.65-.93,117.9,30.63,27.9,23.64,57.51,32.08,83.4,23.77,25.88-8.31,45.06-32.41,53.98-67.87,2.44-9.7,12.29-15.59,21.99-13.14,9.69,2.44,15.59,12.29,13.14,21.99-11.92,47.34-40.36,81.43-78.04,93.52-37.68,12.09-80.65.93-117.9-30.63-27.9-23.64-57.51-32.08-83.4-23.77-25.88,8.31-45.06,32.41-53.98,67.87-2.44,9.7-12.29,15.59-21.99,13.14-.67-.17-1.32-.37-1.96-.61Z"/>
        </g>
        <path class="cls-1" d="m-115.07,1077.6c-4.74-7.77-2.99-18.02,4.37-23.73,38.57-29.92,81.98-39.22,119.11-25.51,37.12,13.71,64.07,48.99,73.93,96.81,7.39,35.81,25.5,60.72,51,70.14,25.5,9.42,55.46,2.26,84.35-20.15,7.91-6.13,19.29-4.7,25.42,3.21,6.13,7.9,4.7,19.28-3.21,25.42-38.57,29.92-81.98,39.22-119.11,25.51-37.12-13.71-64.07-49-73.93-96.81-7.39-35.81-25.5-60.72-51-70.14-25.5-9.42-55.46-2.26-84.35,20.15-7.91,6.13-19.29,4.7-25.42-3.21-.42-.55-.81-1.11-1.16-1.69Z"/>
        <g>
          <path class="cls-1" d="m1006.93-44.4c-4.74-7.77-2.99-18.02,4.37-23.73,38.57-29.92,81.99-39.22,119.11-25.51,37.12,13.71,64.07,48.99,73.93,96.81,7.39,35.81,25.5,60.72,51,70.14,25.5,9.42,55.46,2.26,84.35-20.15,7.91-6.13,19.29-4.7,25.42,3.21,6.13,7.9,4.7,19.28-3.21,25.42-38.57,29.92-81.98,39.22-119.11,25.51-37.12-13.71-64.07-49-73.93-96.81-7.39-35.81-25.5-60.72-51-70.14-25.5-9.42-55.46-2.26-84.35,20.15-7.91,6.13-19.29,4.7-25.42-3.21-.42-.55-.81-1.11-1.16-1.69Z"/>
          <path class="cls-1" d="m1006.93,1077.6c-4.74-7.77-2.99-18.02,4.37-23.73,38.57-29.92,81.99-39.22,119.11-25.51,37.12,13.71,64.07,48.99,73.93,96.81,7.39,35.81,25.5,60.72,51,70.14,25.5,9.42,55.46,2.26,84.35-20.15,7.91-6.13,19.29-4.7,25.42,3.21,6.13,7.9,4.7,19.28-3.21,25.42-38.57,29.92-81.98,39.22-119.11,25.51-37.12-13.71-64.07-49-73.93-96.81-7.39-35.81-25.5-60.72-51-70.14-25.5-9.42-55.46-2.26-84.35,20.15-7.91,6.13-19.29,4.7-25.42-3.21-.42-.55-.81-1.11-1.16-1.69Z"/>
          <path class="cls-1" d="m883.07,864.98c-7.55-5.08-10.24-15.13-5.93-23.39,22.56-43.29,58.13-69.86,97.59-72.89,39.46-3.03,78.67,17.78,107.59,57.11,21.66,29.46,48.52,44.53,75.62,42.45,27.1-2.08,51.34-21.09,68.24-53.51,4.62-8.87,15.57-12.32,24.44-7.69,8.87,4.62,12.32,15.56,7.69,24.44-22.56,43.29-58.13,69.86-97.59,72.89-39.46,3.03-78.67-17.78-107.59-57.11-21.66-29.46-48.51-44.53-75.62-42.45-27.1,2.08-51.34,21.09-68.24,53.51-4.62,8.87-15.57,12.32-24.44,7.69-.61-.32-1.2-.67-1.76-1.05Z"/>
          <path class="cls-1" d="m1116.77,621.72c-7.22,5.54-17.6,4.88-24.06-1.83-33.85-35.17-47.71-77.35-38.03-115.72,9.69-38.37,41.9-68.92,88.4-83.81,34.82-11.15,57.66-31.81,64.32-58.17,6.65-26.36-3.65-55.38-29-81.73-6.94-7.21-6.72-18.68.49-25.61,7.2-6.93,18.68-6.72,25.61.49,33.85,35.17,47.71,77.35,38.03,115.72-9.69,38.37-41.91,68.92-88.4,83.81-34.82,11.15-57.66,31.81-64.32,58.17-6.65,26.36,3.65,55.38,29,81.73,6.94,7.21,6.72,18.68-.49,25.61-.5.48-1.02.92-1.55,1.34Z"/>
        </g>
        <g>
          <path class="cls-1" d="m-115.07-44.4c-4.74-7.77-2.99-18.02,4.37-23.73,38.57-29.92,81.98-39.22,119.11-25.51C45.53-79.93,72.48-44.64,82.35,3.17c7.39,35.81,25.5,60.72,51,70.14,25.5,9.42,55.46,2.26,84.35-20.15,7.91-6.13,19.29-4.7,25.42,3.21,6.13,7.9,4.7,19.28-3.21,25.42-38.57,29.92-81.98,39.22-119.11,25.51C83.67,93.58,56.72,58.3,46.86,10.49,39.47-25.32,21.36-50.23-4.14-59.65c-25.5-9.42-55.46-2.26-84.35,20.15-7.91,6.13-19.29,4.7-25.42-3.21-.42-.55-.81-1.11-1.16-1.69Z"/>
          <path class="cls-1" d="m-115.07,1077.6c-4.74-7.77-2.99-18.02,4.37-23.73,38.57-29.92,81.98-39.22,119.11-25.51,37.12,13.71,64.07,48.99,73.93,96.81,7.39,35.81,25.5,60.72,51,70.14,25.5,9.42,55.46,2.26,84.35-20.15,7.91-6.13,19.29-4.7,25.42,3.21,6.13,7.9,4.7,19.28-3.21,25.42-38.57,29.92-81.98,39.22-119.11,25.51-37.12-13.71-64.07-49-73.93-96.81-7.39-35.81-25.5-60.72-51-70.14-25.5-9.42-55.46-2.26-84.35,20.15-7.91,6.13-19.29,4.7-25.42-3.21-.42-.55-.81-1.11-1.16-1.69Z"/>
          <path class="cls-1" d="m1006.93-44.4c-4.74-7.77-2.99-18.02,4.37-23.73,38.57-29.92,81.99-39.22,119.11-25.51,37.12,13.71,64.07,48.99,73.93,96.81,7.39,35.81,25.5,60.72,51,70.14,25.5,9.42,55.46,2.26,84.35-20.15,7.91-6.13,19.29-4.7,25.42,3.21,6.13,7.9,4.7,19.28-3.21,25.42-38.57,29.92-81.98,39.22-119.11,25.51-37.12-13.71-64.07-49-73.93-96.81-7.39-35.81-25.5-60.72-51-70.14-25.5-9.42-55.46-2.26-84.35,20.15-7.91,6.13-19.29,4.7-25.42-3.21-.42-.55-.81-1.11-1.16-1.69Z"/>
          <path class="cls-1" d="m1006.93,1077.6c-4.74-7.77-2.99-18.02,4.37-23.73,38.57-29.92,81.99-39.22,119.11-25.51,37.12,13.71,64.07,48.99,73.93,96.81,7.39,35.81,25.5,60.72,51,70.14,25.5,9.42,55.46,2.26,84.35-20.15,7.91-6.13,19.29-4.7,25.42,3.21,6.13,7.9,4.7,19.28-3.21,25.42-38.57,29.92-81.98,39.22-119.11,25.51-37.12-13.71-64.07-49-73.93-96.81-7.39-35.81-25.5-60.72-51-70.14-25.5-9.42-55.46-2.26-84.35,20.15-7.91,6.13-19.29,4.7-25.42-3.21-.42-.55-.81-1.11-1.16-1.69Z"/>
          <path class="cls-1" d="m230.46,332.91c-9.07.71-17.42-5.49-19.18-14.64-9.23-47.94,2.12-90.86,31.14-117.76,29.02-26.9,72.68-34.97,119.78-22.13,35.28,9.61,65.69,4.73,85.62-13.75,19.94-18.48,27.11-48.43,20.19-84.34-1.89-9.82,4.54-19.32,14.36-21.21,9.81-1.89,19.32,4.54,21.21,14.36,9.23,47.94-2.12,90.86-31.14,117.76-29.02,26.9-72.68,34.97-119.78,22.13-35.28-9.61-65.69-4.73-85.62,13.75-19.94,18.48-27.11,48.43-20.19,84.34,1.89,9.82-4.54,19.32-14.36,21.21-.68.13-1.36.22-2.03.27Z"/>
          <path class="cls-1" d="m703.56,892.46c-8,4.34-18.15,2.07-23.48-5.57-27.93-40.04-35.02-83.86-19.45-120.24,15.57-36.38,52.17-61.51,100.42-68.94,36.14-5.57,61.93-22.4,72.63-47.39,10.7-24.99,5.07-55.27-15.86-85.26-5.72-8.21-3.71-19.5,4.49-25.22,8.2-5.72,19.5-3.71,25.22,4.49,27.93,40.04,35.02,83.86,19.45,120.24-15.57,36.38-52.17,61.51-100.42,68.94-36.14,5.57-61.93,22.4-72.63,47.39-10.7,24.99-5.07,55.27,15.86,85.26,5.72,8.21,3.71,19.5-4.49,25.22-.57.4-1.15.75-1.74,1.08Z"/>
          <path class="cls-1" d="m147.96,1023.41c-9.03,1.1-17.64-4.75-19.79-13.81-11.26-47.5-1.75-90.87,26.1-118.98,27.85-28.11,71.13-38.03,118.73-27.21,35.65,8.11,65.83,1.93,84.96-17.38,19.13-19.31,25.02-49.54,16.59-85.12-2.31-9.74,3.71-19.5,13.45-21.81,9.73-2.31,19.5,3.71,21.81,13.45,11.26,47.5,1.75,90.87-26.1,118.98-27.85,28.11-71.13,38.03-118.73,27.21-35.65-8.11-65.83-1.93-84.96,17.38-19.13,19.31-25.02,49.54-16.59,85.12,2.31,9.74-3.71,19.5-13.45,21.81-.67.16-1.35.28-2.02.36Z"/>
          <path class="cls-1" d="m248.33,503.72c-3.53-8.39-.27-18.27,7.85-22.82,42.59-23.85,86.9-26.59,121.58-7.52,34.67,19.08,56.07,57.97,58.72,106.72,1.98,36.51,16.19,63.84,40.01,76.94,23.82,13.11,54.5,10.48,86.41-7.39,8.73-4.89,19.77-1.78,24.66,6.95,4.89,8.72,1.78,19.77-6.95,24.66-42.59,23.85-86.9,26.59-121.58,7.52-34.67-19.08-56.07-57.98-58.72-106.72-1.98-36.51-16.19-63.83-40.01-76.94-23.82-13.11-54.5-10.48-86.41,7.39-8.73,4.89-19.77,1.78-24.66-6.95-.34-.6-.64-1.22-.9-1.84Z"/>
          <path class="cls-1" d="m780.12,83.41c-1.14-9.03,4.66-17.66,13.72-19.85,47.45-11.49,90.86-2.18,119.1,25.54,28.24,27.72,38.36,70.95,27.77,118.6-7.94,35.69-1.62,65.84,17.78,84.88,19.4,19.04,49.66,24.79,85.2,16.19,9.72-2.35,19.52,3.62,21.87,13.34,2.36,9.71-3.62,19.52-13.35,21.87-47.45,11.49-90.86,2.18-119.1-25.54-28.24-27.72-38.36-70.95-27.77-118.6,7.94-35.69,1.62-65.84-17.78-84.88-19.4-19.04-49.66-24.79-85.2-16.19-9.72,2.35-19.52-3.62-21.87-13.34-.16-.67-.29-1.35-.37-2.02Z"/>
          <path class="cls-1" d="m388.22,28.58c-8.52-3.19-13.46-12.35-11.19-21.38,11.92-47.34,40.36-81.43,78.04-93.52,37.68-12.09,80.65-.93,117.9,30.63,27.9,23.64,57.51,32.08,83.4,23.77,25.88-8.31,45.06-32.41,53.98-67.87,2.44-9.7,12.29-15.59,21.99-13.14,9.69,2.44,15.59,12.29,13.14,21.99-11.92,47.34-40.36,81.43-78.04,93.52-37.68,12.09-80.65.93-117.9-30.63-27.9-23.64-57.51-32.08-83.4-23.77-25.88,8.31-45.06,32.41-53.98,67.87-2.44,9.7-12.29,15.59-21.99,13.14-.67-.17-1.32-.37-1.96-.61Z"/>
          <path class="cls-1" d="m388.22,1150.58c-8.52-3.19-13.46-12.35-11.19-21.38,11.92-47.34,40.36-81.43,78.04-93.52,37.68-12.09,80.65-.93,117.9,30.63,27.9,23.64,57.51,32.08,83.4,23.77,25.88-8.31,45.06-32.41,53.98-67.87,2.44-9.7,12.29-15.59,21.99-13.14,9.69,2.44,15.59,12.29,13.14,21.99-11.92,47.34-40.36,81.43-78.04,93.52-37.68,12.09-80.65.93-117.9-30.63-27.9-23.64-57.51-32.08-83.4-23.77-25.88,8.31-45.06,32.41-53.98,67.87-2.44,9.7-12.29,15.59-21.99,13.14-.67-.17-1.32-.37-1.96-.61Z"/>
          <path class="cls-1" d="m883.07,864.98c-7.55-5.08-10.24-15.13-5.93-23.39,22.56-43.29,58.13-69.86,97.59-72.89,39.46-3.03,78.67,17.78,107.59,57.11,21.66,29.46,48.52,44.53,75.62,42.45,27.1-2.08,51.34-21.09,68.24-53.51,4.62-8.87,15.57-12.32,24.44-7.69,8.87,4.62,12.32,15.56,7.69,24.44-22.56,43.29-58.13,69.86-97.59,72.89-39.46,3.03-78.67-17.78-107.59-57.11-21.66-29.46-48.51-44.53-75.62-42.45-27.1,2.08-51.34,21.09-68.24,53.51-4.62,8.87-15.57,12.32-24.44,7.69-.61-.32-1.2-.67-1.76-1.05Z"/>
          <path class="cls-1" d="m-238.93,864.98c-7.55-5.08-10.24-15.13-5.93-23.39,22.56-43.29,58.13-69.86,97.59-72.89,39.46-3.03,78.67,17.78,107.59,57.11,21.66,29.46,48.52,44.53,75.62,42.45,27.1-2.08,51.34-21.09,68.24-53.51,4.62-8.87,15.57-12.32,24.44-7.69,8.87,4.62,12.32,15.56,7.69,24.44-22.56,43.29-58.13,69.86-97.59,72.89-39.46,3.03-78.67-17.78-107.59-57.11-21.66-29.46-48.51-44.53-75.62-42.45-27.1,2.08-51.34,21.09-68.24,53.51-4.62,8.87-15.57,12.32-24.44,7.69-.61-.32-1.2-.67-1.76-1.05Z"/>
          <path class="cls-1" d="m681.84,201.55c6.14-6.72,16.48-7.89,24.01-2.42,39.49,28.7,60.52,67.8,57.71,107.27-2.82,39.47-29.19,75.19-72.35,97.99-32.33,17.08-51.2,41.42-53.14,68.53-1.93,27.12,13.29,53.89,42.87,75.38,8.09,5.88,9.89,17.21,4,25.3-5.87,8.09-17.21,9.89-25.3,4-39.49-28.7-60.52-67.8-57.71-107.27,2.82-39.47,29.19-75.19,72.35-97.99,32.33-17.08,51.2-41.42,53.14-68.53,1.93-27.12-13.29-53.89-42.87-75.38-8.09-5.88-9.89-17.21-4-25.3.41-.56.84-1.09,1.3-1.59Z"/>
          <path class="cls-1" d="m-5.23,621.72c-7.22,5.54-17.6,4.88-24.06-1.83-33.85-35.17-47.71-77.35-38.03-115.72,9.69-38.37,41.9-68.92,88.4-83.81,34.82-11.15,57.66-31.81,64.32-58.17,6.65-26.36-3.65-55.38-29-81.73-6.94-7.21-6.72-18.68.49-25.61,7.2-6.93,18.68-6.72,25.61.49,33.85,35.17,47.71,77.35,38.03,115.72-9.69,38.37-41.91,68.92-88.4,83.81-34.82,11.15-57.66,31.81-64.32,58.17-6.65,26.36,3.65,55.38,29,81.73,6.94,7.21,6.72,18.68-.49,25.61-.5.48-1.02.92-1.55,1.34Z"/>
          <path class="cls-1" d="m1116.77,621.72c-7.22,5.54-17.6,4.88-24.06-1.83-33.85-35.17-47.71-77.35-38.03-115.72,9.69-38.37,41.9-68.92,88.4-83.81,34.82-11.15,57.66-31.81,64.32-58.17,6.65-26.36-3.65-55.38-29-81.73-6.94-7.21-6.72-18.68.49-25.61,7.2-6.93,18.68-6.72,25.61.49,33.85,35.17,47.71,77.35,38.03,115.72-9.69,38.37-41.91,68.92-88.4,83.81-34.82,11.15-57.66,31.81-64.32,58.17-6.65,26.36,3.65,55.38,29,81.73,6.94,7.21,6.72,18.68-.49,25.61-.5.48-1.02.92-1.55,1.34Z"/>
        </g>
        <g>
          <path class="cls-1" d="m-115.07-44.4c-4.74-7.77-2.99-18.02,4.37-23.73,38.57-29.92,81.98-39.22,119.11-25.51C45.53-79.93,72.48-44.64,82.35,3.17c7.39,35.81,25.5,60.72,51,70.14,25.5,9.42,55.46,2.26,84.35-20.15,7.91-6.13,19.29-4.7,25.42,3.21,6.13,7.9,4.7,19.28-3.21,25.42-38.57,29.92-81.98,39.22-119.11,25.51C83.67,93.58,56.72,58.3,46.86,10.49,39.47-25.32,21.36-50.23-4.14-59.65c-25.5-9.42-55.46-2.26-84.35,20.15-7.91,6.13-19.29,4.7-25.42-3.21-.42-.55-.81-1.11-1.16-1.69Z"/>
          <path class="cls-1" d="m-115.07,1077.6c-4.74-7.77-2.99-18.02,4.37-23.73,38.57-29.92,81.98-39.22,119.11-25.51,37.12,13.71,64.07,48.99,73.93,96.81,7.39,35.81,25.5,60.72,51,70.14,25.5,9.42,55.46,2.26,84.35-20.15,7.91-6.13,19.29-4.7,25.42,3.21,6.13,7.9,4.7,19.28-3.21,25.42-38.57,29.92-81.98,39.22-119.11,25.51-37.12-13.71-64.07-49-73.93-96.81-7.39-35.81-25.5-60.72-51-70.14-25.5-9.42-55.46-2.26-84.35,20.15-7.91,6.13-19.29,4.7-25.42-3.21-.42-.55-.81-1.11-1.16-1.69Z"/>
          <path class="cls-1" d="m-238.93,864.98c-7.55-5.08-10.24-15.13-5.93-23.39,22.56-43.29,58.13-69.86,97.59-72.89,39.46-3.03,78.67,17.78,107.59,57.11,21.66,29.46,48.52,44.53,75.62,42.45,27.1-2.08,51.34-21.09,68.24-53.51,4.62-8.87,15.57-12.32,24.44-7.69,8.87,4.62,12.32,15.56,7.69,24.44-22.56,43.29-58.13,69.86-97.59,72.89-39.46,3.03-78.67-17.78-107.59-57.11-21.66-29.46-48.51-44.53-75.62-42.45-27.1,2.08-51.34,21.09-68.24,53.51-4.62,8.87-15.57,12.32-24.44,7.69-.61-.32-1.2-.67-1.76-1.05Z"/>
          <path class="cls-1" d="m-5.23,621.72c-7.22,5.54-17.6,4.88-24.06-1.83-33.85-35.17-47.71-77.35-38.03-115.72,9.69-38.37,41.9-68.92,88.4-83.81,34.82-11.15,57.66-31.81,64.32-58.17,6.65-26.36-3.65-55.38-29-81.73-6.94-7.21-6.72-18.68.49-25.61,7.2-6.93,18.68-6.72,25.61.49,33.85,35.17,47.71,77.35,38.03,115.72-9.69,38.37-41.91,68.92-88.4,83.81-34.82,11.15-57.66,31.81-64.32,58.17-6.65,26.36,3.65,55.38,29,81.73,6.94,7.21,6.72,18.68-.49,25.61-.5.48-1.02.92-1.55,1.34Z"/>
        </g>
        <path class="cls-1" d="m1006.93-44.4c-4.74-7.77-2.99-18.02,4.37-23.73,38.57-29.92,81.99-39.22,119.11-25.51,37.12,13.71,64.07,48.99,73.93,96.81,7.39,35.81,25.5,60.72,51,70.14,25.5,9.42,55.46,2.26,84.35-20.15,7.91-6.13,19.29-4.7,25.42,3.21,6.13,7.9,4.7,19.28-3.21,25.42-38.57,29.92-81.98,39.22-119.11,25.51-37.12-13.71-64.07-49-73.93-96.81-7.39-35.81-25.5-60.72-51-70.14-25.5-9.42-55.46-2.26-84.35,20.15-7.91,6.13-19.29,4.7-25.42-3.21-.42-.55-.81-1.11-1.16-1.69Z"/>
        <g>
          <path class="cls-1" d="m-115.07-44.4c-4.74-7.77-2.99-18.02,4.37-23.73,38.57-29.92,81.98-39.22,119.11-25.51C45.53-79.93,72.48-44.64,82.35,3.17c7.39,35.81,25.5,60.72,51,70.14,25.5,9.42,55.46,2.26,84.35-20.15,7.91-6.13,19.29-4.7,25.42,3.21,6.13,7.9,4.7,19.28-3.21,25.42-38.57,29.92-81.98,39.22-119.11,25.51C83.67,93.58,56.72,58.3,46.86,10.49,39.47-25.32,21.36-50.23-4.14-59.65c-25.5-9.42-55.46-2.26-84.35,20.15-7.91,6.13-19.29,4.7-25.42-3.21-.42-.55-.81-1.11-1.16-1.69Z"/>
          <path class="cls-1" d="m1006.93-44.4c-4.74-7.77-2.99-18.02,4.37-23.73,38.57-29.92,81.99-39.22,119.11-25.51,37.12,13.71,64.07,48.99,73.93,96.81,7.39,35.81,25.5,60.72,51,70.14,25.5,9.42,55.46,2.26,84.35-20.15,7.91-6.13,19.29-4.7,25.42,3.21,6.13,7.9,4.7,19.28-3.21,25.42-38.57,29.92-81.98,39.22-119.11,25.51-37.12-13.71-64.07-49-73.93-96.81-7.39-35.81-25.5-60.72-51-70.14-25.5-9.42-55.46-2.26-84.35,20.15-7.91,6.13-19.29,4.7-25.42-3.21-.42-.55-.81-1.11-1.16-1.69Z"/>
          <path class="cls-1" d="m388.22,28.58c-8.52-3.19-13.46-12.35-11.19-21.38,11.92-47.34,40.36-81.43,78.04-93.52,37.68-12.09,80.65-.93,117.9,30.63,27.9,23.64,57.51,32.08,83.4,23.77,25.88-8.31,45.06-32.41,53.98-67.87,2.44-9.7,12.29-15.59,21.99-13.14,9.69,2.44,15.59,12.29,13.14,21.99-11.92,47.34-40.36,81.43-78.04,93.52-37.68,12.09-80.65.93-117.9-30.63-27.9-23.64-57.51-32.08-83.4-23.77-25.88,8.31-45.06,32.41-53.98,67.87-2.44,9.7-12.29,15.59-21.99,13.14-.67-.17-1.32-.37-1.96-.61Z"/>
        </g>
        <path class="cls-1" d="m-115.07-44.4c-4.74-7.77-2.99-18.02,4.37-23.73,38.57-29.92,81.98-39.22,119.11-25.51C45.53-79.93,72.48-44.64,82.35,3.17c7.39,35.81,25.5,60.72,51,70.14,25.5,9.42,55.46,2.26,84.35-20.15,7.91-6.13,19.29-4.7,25.42,3.21,6.13,7.9,4.7,19.28-3.21,25.42-38.57,29.92-81.98,39.22-119.11,25.51C83.67,93.58,56.72,58.3,46.86,10.49,39.47-25.32,21.36-50.23-4.14-59.65c-25.5-9.42-55.46-2.26-84.35,20.15-7.91,6.13-19.29,4.7-25.42-3.21-.42-.55-.81-1.11-1.16-1.69Z"/>
      </g>
    </pattern>
  </defs>
  <rect class="cls-2" width="1920" height="1080.33"/>
</svg>