<svg width="347" height="134" viewBox="0 0 347 134" fill="none" xmlns="http://www.w3.org/2000/svg">
<path d="M1.86328 132.215H3.79102C4.58008 132.215 5.16992 132.031 5.56055 131.664C5.95508 131.293 6.15234 130.736 6.15234 129.994V127.486C6.15234 126.744 5.95508 126.189 5.56055 125.822C5.16992 125.451 4.58008 125.266 3.79102 125.266H1.86328V124.48H3.75586C4.47852 124.48 5.08008 124.594 5.56055 124.82C6.04102 125.043 6.40039 125.381 6.63867 125.834C6.87695 126.287 6.99609 126.854 6.99609 127.533V129.947C6.99609 130.627 6.875 131.193 6.63281 131.646C6.39453 132.096 6.03516 132.434 5.55469 132.66C5.07422 132.887 4.47266 133 3.75 133H1.86328V132.215ZM1.05469 124.48H1.89844V133H1.05469V124.48ZM69.6525 124.48H70.4962V133H69.6525V124.48ZM70.2326 132.215H75.1252V133H70.2326V132.215ZM70.2326 128.377H74.4806V129.162H70.2326V128.377ZM70.2326 124.48H75.1252V125.266H70.2326V124.48Z" fill="#206978"/>
<path d="M140.225 133.088C139.815 133.088 139.426 133.049 139.059 132.971C138.692 132.893 138.348 132.775 138.028 132.619C137.711 132.463 137.414 132.268 137.137 132.033L137.647 131.365C138.002 131.678 138.395 131.912 138.825 132.068C139.254 132.225 139.721 132.303 140.225 132.303C140.955 132.303 141.52 132.158 141.918 131.869C142.321 131.58 142.522 131.174 142.522 130.65V130.645C142.522 130.32 142.434 130.061 142.258 129.865C142.086 129.67 141.862 129.523 141.584 129.426C141.311 129.328 140.957 129.238 140.524 129.156C140.512 129.152 140.498 129.15 140.483 129.15C140.471 129.146 140.457 129.143 140.442 129.139L140.272 129.104C139.674 128.99 139.196 128.873 138.836 128.752C138.477 128.627 138.17 128.418 137.916 128.125C137.666 127.828 137.541 127.418 137.541 126.895V126.889C137.541 126.361 137.659 125.912 137.893 125.541C138.131 125.166 138.477 124.881 138.93 124.686C139.383 124.49 139.928 124.393 140.565 124.393C140.866 124.393 141.162 124.426 141.455 124.492C141.752 124.559 142.043 124.658 142.328 124.791C142.617 124.92 142.903 125.084 143.184 125.283L142.686 125.945C142.319 125.688 141.959 125.496 141.608 125.371C141.256 125.242 140.909 125.178 140.565 125.178C139.869 125.178 139.33 125.324 138.948 125.617C138.565 125.91 138.373 126.322 138.373 126.854V126.859C138.373 127.18 138.469 127.434 138.66 127.621C138.852 127.805 139.088 127.941 139.369 128.031C139.655 128.121 140.043 128.215 140.535 128.312C140.551 128.316 140.567 128.32 140.582 128.324C140.602 128.328 140.621 128.332 140.641 128.336C140.664 128.34 140.686 128.346 140.705 128.354C140.729 128.357 140.752 128.361 140.776 128.365C141.311 128.475 141.756 128.6 142.112 128.74C142.467 128.881 142.762 129.102 142.996 129.402C143.235 129.699 143.354 130.102 143.354 130.609V130.621C143.354 131.141 143.231 131.586 142.985 131.957C142.739 132.324 142.381 132.605 141.912 132.801C141.448 132.992 140.885 133.088 140.225 133.088ZM206.801 133H205.958V124.48H206.801V133Z" fill="#FF8135"/>
<path d="M275.751 128.646V129.9C275.751 130.611 275.639 131.203 275.417 131.676C275.198 132.148 274.868 132.502 274.426 132.736C273.985 132.971 273.432 133.088 272.768 133.088C272.096 133.088 271.536 132.977 271.087 132.754C270.641 132.531 270.307 132.199 270.085 131.758C269.862 131.312 269.751 130.756 269.751 130.088V127.574C269.751 126.863 269.86 126.273 270.079 125.805C270.301 125.332 270.633 124.979 271.075 124.744C271.516 124.51 272.069 124.393 272.733 124.393C273.284 124.393 273.758 124.486 274.157 124.674C274.555 124.861 274.881 125.143 275.135 125.518C275.389 125.889 275.571 126.357 275.68 126.924H274.766C274.665 126.533 274.522 126.209 274.339 125.951C274.159 125.693 273.934 125.5 273.665 125.371C273.399 125.242 273.089 125.178 272.733 125.178C272.256 125.178 271.86 125.268 271.544 125.447C271.227 125.623 270.989 125.889 270.829 126.244C270.672 126.596 270.594 127.039 270.594 127.574V130.088C270.594 130.584 270.674 130.996 270.835 131.324C270.995 131.648 271.235 131.893 271.555 132.057C271.88 132.221 272.284 132.303 272.768 132.303C273.241 132.303 273.63 132.219 273.934 132.051C274.243 131.883 274.473 131.623 274.626 131.271C274.782 130.92 274.86 130.469 274.86 129.918V129.432H272.797V128.646H275.751ZM338.407 124.48H339.257L344.202 132.156L343.856 131.922V124.48H344.7V132.994H343.839L338.794 125.26L339.251 125.594V132.994H338.407V124.48Z" fill="#A8A8A8"/>
<rect width="100" height="100" fill="#206978"/>
<circle cx="173" cy="50" r="50" fill="#FF8135"/>
<path d="M297 0L346.363 99.75H247.637L297 0Z" fill="#E7E7E7"/>
</svg>
