<?xml version="1.0" encoding="UTF-8"?>
<!DOCTYPE svg PUBLIC "-//W3C//DTD SVG 1.1//EN" "http://www.w3.org/Graphics/SVG/1.1/DTD/svg11.dtd">
<svg xmlns="http://www.w3.org/2000/svg" version="1.1" width="512px" height="512px" style="shape-rendering:geometricPrecision; text-rendering:geometricPrecision; image-rendering:optimizeQuality; fill-rule:evenodd; clip-rule:evenodd" xmlns:xlink="http://www.w3.org/1999/xlink">
<g><path style="opacity:0.936" fill="#252525" d="M 196.5,33.5 C 235.835,33.3333 275.168,33.5 314.5,34C 338.266,37.1124 349.932,50.779 349.5,75C 350.268,90.2647 343.601,95.598 329.5,91C 326.819,88.806 325.319,85.9727 325,82.5C 324.667,76.8333 324.333,71.1667 324,65.5C 323.167,62 321,59.8333 317.5,59C 276.167,58.3333 234.833,58.3333 193.5,59C 190,59.8333 187.833,62 187,65.5C 186.667,71.1667 186.333,76.8333 186,82.5C 183.489,91.838 177.656,95.0047 168.5,92C 164.184,89.8744 162.017,86.3744 162,81.5C 159.315,64.8825 164.148,51.0492 176.5,40C 182.875,36.4847 189.542,34.3181 196.5,33.5 Z"/></g>
<g><path style="opacity:0.962" fill="#252525" d="M 511.5,142.5 C 511.5,172.833 511.5,203.167 511.5,233.5C 507.453,246.048 499.12,254.548 486.5,259C 425.535,272.824 364.535,286.491 303.5,300C 302.676,313.425 302.176,326.925 302,340.5C 300.577,345.806 297.077,348.639 291.5,349C 267.5,349.667 243.5,349.667 219.5,349C 213.923,348.639 210.423,345.806 209,340.5C 208.824,326.925 208.324,313.425 207.5,300C 146.465,286.491 85.4646,272.824 24.5,259C 11.88,254.548 3.5467,246.048 -0.5,233.5C -0.5,203.167 -0.5,172.833 -0.5,142.5C 3.42262,128.08 12.756,119.247 27.5,116C 179.5,115.333 331.5,115.333 483.5,116C 498.244,119.247 507.577,128.08 511.5,142.5 Z M 32.5,139.5 C 181.167,139.333 329.834,139.5 478.5,140C 482.499,140.668 485.332,142.835 487,146.5C 487.667,174.167 487.667,201.833 487,229.5C 485.878,231.624 484.378,233.457 482.5,235C 422.591,248.948 362.591,262.448 302.5,275.5C 302.825,270.401 302.325,265.401 301,260.5C 299.457,258.622 297.624,257.122 295.5,256C 268.833,255.333 242.167,255.333 215.5,256C 213.376,257.122 211.543,258.622 210,260.5C 208.675,265.401 208.175,270.401 208.5,275.5C 148.409,262.448 88.4089,248.948 28.5,235C 26.6217,233.457 25.1217,231.624 24,229.5C 23.3333,201.833 23.3333,174.167 24,146.5C 25.8507,142.843 28.6841,140.51 32.5,139.5 Z M 232.5,279.5 C 247.833,279.5 263.167,279.5 278.5,279.5C 278.5,294.5 278.5,309.5 278.5,324.5C 263.167,324.5 247.833,324.5 232.5,324.5C 232.5,309.5 232.5,294.5 232.5,279.5 Z"/></g>
<g><path style="opacity:0.947" fill="#252525" d="M 18.5,278.5 C 25.5146,276.926 30.6813,279.26 34,285.5C 34.3333,337.5 34.6667,389.5 35,441.5C 35.0173,446.374 37.184,449.874 41.5,452C 184.167,452.667 326.833,452.667 469.5,452C 473.816,449.874 475.983,446.374 476,441.5C 476.333,389.5 476.667,337.5 477,285.5C 480.323,279.092 485.489,276.925 492.5,279C 497.228,280.396 499.728,283.562 500,288.5C 500.667,340.833 500.667,393.167 500,445.5C 497.269,464.896 486.102,475.396 466.5,477C 325.833,477.667 185.167,477.667 44.5,477C 24.8979,475.396 13.7312,464.896 11,445.5C 10.3333,393.167 10.3333,340.833 11,288.5C 11.4713,283.542 13.9713,280.209 18.5,278.5 Z M 232.5,279.5 C 232.5,294.5 232.5,309.5 232.5,324.5C 247.833,324.5 263.167,324.5 278.5,324.5C 278.5,309.5 278.5,294.5 278.5,279.5C 263.167,279.5 247.833,279.5 232.5,279.5 Z"/></g>
</svg>
