<?xml version="1.0" encoding="UTF-8"?>
<!DOCTYPE svg PUBLIC "-//W3C//DTD SVG 1.1//EN" "http://www.w3.org/Graphics/SVG/1.1/DTD/svg11.dtd">
<svg xmlns="http://www.w3.org/2000/svg" version="1.1" width="512px" height="512px" style="shape-rendering:geometricPrecision; text-rendering:geometricPrecision; image-rendering:optimizeQuality; fill-rule:evenodd; clip-rule:evenodd" xmlns:xlink="http://www.w3.org/1999/xlink">
<g><path style="opacity:0.96" fill="#000000" d="M 243.5,62.5 C 254.649,61.6359 265.316,63.4692 275.5,68C 342.833,107.333 410.167,146.667 477.5,186C 490.335,203.816 487.501,218.649 469,230.5C 468.333,274.5 468.333,318.5 469,362.5C 479.385,370.96 482.385,381.627 478,394.5C 470.18,408.44 458.68,412.94 443.5,408C 430.391,400.943 425.558,390.11 429,375.5C 430.895,370.782 433.728,366.782 437.5,363.5C 438.833,325.167 438.833,286.833 437.5,248.5C 429.584,253.041 421.751,257.707 414,262.5C 413.667,291.5 413.333,320.5 413,349.5C 410.374,365.106 402.541,377.273 389.5,386C 361.67,401.747 334.003,417.747 306.5,434C 269.505,453.333 232.505,453.333 195.5,434C 165.24,416.732 135.24,399.065 105.5,381C 96.4518,372.405 90.9518,361.905 89,349.5C 88.6667,320.5 88.3333,291.5 88,262.5C 67.9155,250.541 47.7489,238.707 27.5,227C 14.6983,215.153 13.1983,201.986 23,187.5C 90.5867,147.288 158.42,107.455 226.5,68C 232.137,65.6825 237.803,63.8492 243.5,62.5 Z M 245.5,92.5 C 253.522,91.5627 260.856,93.396 267.5,98C 328.833,133.667 390.167,169.333 451.5,205C 387.828,242.838 323.828,280.171 259.5,317C 252.208,319.338 245.208,318.671 238.5,315C 175.833,278.333 113.167,241.667 50.5,205C 115.43,167.205 180.43,129.705 245.5,92.5 Z M 118.5,280.5 C 153.105,299.805 187.439,319.638 221.5,340C 241.167,351.333 260.833,351.333 280.5,340C 314.37,319.967 348.37,300.134 382.5,280.5C 383.666,302.826 383.833,325.159 383,347.5C 381.292,352.412 378.458,356.579 374.5,360C 344.329,377.586 313.996,394.92 283.5,412C 259.378,421.454 235.712,420.454 212.5,409C 185.833,393.667 159.167,378.333 132.5,363C 125.851,359.686 121.351,354.519 119,347.5C 118.5,325.169 118.333,302.836 118.5,280.5 Z"/></g>
</svg>
