<?xml version="1.0" encoding="UTF-8"?>
<!DOCTYPE svg PUBLIC "-//W3C//DTD SVG 1.1//EN" "http://www.w3.org/Graphics/SVG/1.1/DTD/svg11.dtd">
<svg xmlns="http://www.w3.org/2000/svg" version="1.1" width="512px" height="512px" style="shape-rendering:geometricPrecision; text-rendering:geometricPrecision; image-rendering:optimizeQuality; fill-rule:evenodd; clip-rule:evenodd" xmlns:xlink="http://www.w3.org/1999/xlink">
<g><path style="opacity:0.993" fill="#252525" d="M 511.5,100.5 C 511.5,213.833 511.5,327.167 511.5,440.5C 510.028,442.134 508.362,443.634 506.5,445C 477.167,445.667 447.833,445.667 418.5,445C 413.725,441.345 412.225,436.512 414,430.5C 415.167,428.667 416.667,427.167 418.5,426C 442.831,425.5 467.164,425.333 491.5,425.5C 491.5,322.167 491.5,218.833 491.5,115.5C 477.167,115.5 462.833,115.5 448.5,115.5C 448.667,203.834 448.5,292.167 448,380.5C 446.833,382.333 445.333,383.833 443.5,385C 404.5,385.333 365.5,385.667 326.5,386C 303.15,386.555 282.983,394.722 266,410.5C 265.501,415.489 265.334,420.489 265.5,425.5C 289.836,425.333 314.169,425.5 338.5,426C 343.275,429.655 344.775,434.488 343,440.5C 341.833,442.333 340.333,443.833 338.5,445C 227.167,445.667 115.833,445.667 4.5,445C 2.63834,443.634 0.971672,442.134 -0.5,440.5C -0.5,327.167 -0.5,213.833 -0.5,100.5C 0.971672,98.8657 2.63834,97.3657 4.5,96C 23.8305,95.5 43.1638,95.3334 62.5,95.5C 62.3336,87.16 62.5003,78.8267 63,70.5C 64.1667,68.6667 65.6667,67.1667 67.5,66C 111.167,65.3333 154.833,65.3333 198.5,66C 219.699,69.2716 238.699,77.4383 255.5,90.5C 272.301,77.4383 291.301,69.2716 312.5,66C 356.167,65.3333 399.833,65.3333 443.5,66C 445.333,67.1667 446.833,68.6667 448,70.5C 448.5,78.8267 448.666,87.16 448.5,95.5C 467.836,95.3334 487.17,95.5 506.5,96C 508.362,97.3657 510.028,98.8657 511.5,100.5 Z M 82.5,85.5 C 120.521,85.0786 158.521,85.5786 196.5,87C 215.143,89.9057 231.309,97.739 245,110.5C 245.667,201.5 245.667,292.5 245,383.5C 230.898,374.13 215.398,368.297 198.5,366C 159.835,365.5 121.168,365.333 82.5,365.5C 82.5,272.167 82.5,178.833 82.5,85.5 Z M 326.5,85.5 C 360.5,85.5 394.5,85.5 428.5,85.5C 428.5,178.833 428.5,272.167 428.5,365.5C 389.832,365.333 351.165,365.5 312.5,366C 295.602,368.297 280.102,374.13 266,383.5C 265.333,292.5 265.333,201.5 266,110.5C 283.181,94.8314 303.348,86.498 326.5,85.5 Z M 19.5,115.5 C 33.8333,115.5 48.1667,115.5 62.5,115.5C 62.3333,203.834 62.5,292.167 63,380.5C 64.1667,382.333 65.6667,383.833 67.5,385C 106.5,385.333 145.5,385.667 184.5,386C 207.85,386.555 228.017,394.722 245,410.5C 245.499,415.489 245.666,420.489 245.5,425.5C 170.167,425.5 94.8333,425.5 19.5,425.5C 19.5,322.167 19.5,218.833 19.5,115.5 Z"/></g>
<g><path style="opacity:0.98" fill="#252525" d="M 127.5,185.5 C 151.836,185.333 176.169,185.5 200.5,186C 205.275,189.655 206.775,194.488 205,200.5C 203.833,202.333 202.333,203.833 200.5,205C 176.167,205.667 151.833,205.667 127.5,205C 122.725,201.345 121.225,196.512 123,190.5C 124.366,188.638 125.866,186.972 127.5,185.5 Z"/></g>
<g><path style="opacity:0.98" fill="#252525" d="M 310.5,185.5 C 334.836,185.333 359.169,185.5 383.5,186C 388.275,189.655 389.775,194.488 388,200.5C 386.833,202.333 385.333,203.833 383.5,205C 359.167,205.667 334.833,205.667 310.5,205C 305.725,201.345 304.225,196.512 306,190.5C 307.366,188.638 308.866,186.972 310.5,185.5 Z"/></g>
<g><path style="opacity:0.98" fill="#252525" d="M 127.5,245.5 C 151.836,245.333 176.169,245.5 200.5,246C 205.275,249.655 206.775,254.488 205,260.5C 203.833,262.333 202.333,263.833 200.5,265C 176.167,265.667 151.833,265.667 127.5,265C 122.725,261.345 121.225,256.512 123,250.5C 124.366,248.638 125.866,246.972 127.5,245.5 Z"/></g>
<g><path style="opacity:0.98" fill="#252525" d="M 310.5,245.5 C 334.836,245.333 359.169,245.5 383.5,246C 388.275,249.655 389.775,254.488 388,260.5C 386.833,262.333 385.333,263.833 383.5,265C 359.167,265.667 334.833,265.667 310.5,265C 305.725,261.345 304.225,256.512 306,250.5C 307.366,248.638 308.866,246.972 310.5,245.5 Z"/></g>
<g><path style="opacity:0.98" fill="#252525" d="M 127.5,305.5 C 151.836,305.333 176.169,305.5 200.5,306C 205.275,309.655 206.775,314.488 205,320.5C 203.833,322.333 202.333,323.833 200.5,325C 176.167,325.667 151.833,325.667 127.5,325C 122.725,321.345 121.225,316.512 123,310.5C 124.366,308.638 125.866,306.972 127.5,305.5 Z"/></g>
<g><path style="opacity:0.908" fill="#252525" d="M 373.5,425.5 C 385.324,423.824 390.158,428.824 388,440.5C 384.345,445.275 379.512,446.775 373.5,445C 368.725,441.345 367.225,436.512 369,430.5C 370.366,428.638 371.866,426.972 373.5,425.5 Z"/></g>
</svg>
